<svg width="471" height="64" viewBox="0 0 471 64" fill="none" xmlns="http://www.w3.org/2000/svg">
<path fill-rule="evenodd" clip-rule="evenodd" d="M63.0519 55.7797C57.9212 50.649 55.3782 42.8414 55.3782 32.2677C55.3782 21.2032 57.9212 13.1725 62.9627 8.08645C68.0042 3.04497 75.6333 0.501923 85.8055 0.501923C95.9331 0.501923 103.518 3.04497 108.604 8.08645C113.69 13.1279 116.233 21.2032 116.233 32.2677C116.233 42.7968 113.69 50.649 108.559 55.7797C103.428 60.9104 95.8438 63.4535 85.8055 63.4535C75.7225 63.4535 68.1826 60.9104 63.0519 55.7797ZM97.0038 46.0537C99.3684 43.1091 100.573 38.5138 100.573 32.2677C100.573 25.5309 99.413 20.7125 97.0484 17.8571C94.7285 15.0017 90.9362 13.5741 85.7609 13.5741C80.4963 13.5741 76.7487 15.0017 74.3841 17.8571C72.0641 20.7125 70.8595 25.4862 70.8595 32.2677C70.8595 38.5138 72.0641 43.1091 74.4287 46.0537C76.7933 48.9983 80.5856 50.4706 85.7609 50.4706C90.8916 50.4706 94.6392 48.9983 97.0038 46.0537ZM8.9341 55.289C3.26801 49.8459 0.457275 42.2614 0.457275 32.4462C0.457275 22.1401 3.2234 14.2433 8.71102 8.75567C14.1987 3.26805 22.3186 0.546543 33.16 0.546543C36.6845 0.546543 39.8968 0.814232 42.8414 1.34961C45.786 1.88499 48.7305 2.64344 51.6305 3.66958V17.0094C46.1429 14.7341 40.343 13.6187 34.2753 13.6187C27.94 13.6187 23.3447 15.1356 20.4001 18.1694C17.4555 21.2032 15.9832 25.977 15.9832 32.4908C15.9832 38.603 17.5002 43.1537 20.5786 46.0983C23.657 49.0429 28.2523 50.5152 34.4538 50.5152C40.566 50.5152 46.3213 49.3998 51.7197 47.2137V60.6874C46.1429 62.5612 39.986 63.5427 33.2492 63.5427C22.6755 63.4535 14.6002 60.732 8.9341 55.289ZM152.46 1.48345H121.944V62.5166H137.202V43.1983H144.206C145.857 43.1983 147.106 43.466 147.999 44.046C148.891 44.626 149.605 45.6075 150.185 46.9906L157.011 62.5166H172.938L165.755 46.0091C165.086 44.4029 164.461 43.1983 163.926 42.3953C163.391 41.5922 162.677 40.8338 161.874 40.1199C165.532 38.603 168.388 36.283 170.44 33.2046C172.492 30.1262 173.518 26.5124 173.518 22.4078C173.518 15.8494 171.778 10.7187 168.254 7.01569C164.729 3.31266 159.465 1.48345 152.46 1.48345ZM155.449 29.1447C153.799 30.6616 151.479 31.42 148.445 31.42H137.113V13.2172H149.069C154.959 13.2172 157.903 16.2956 157.903 22.4078C157.903 25.397 157.1 27.6278 155.449 29.1447ZM287.331 1.48345H302.589V62.5166H287.331V1.48345ZM323.558 1.48345H308.3V62.472H352.379V50.7383H323.558V1.48345ZM362.016 55.7797C356.885 50.649 354.342 42.8414 354.342 32.2677C354.342 21.2032 356.885 13.1725 361.927 8.08645C366.968 3.04497 374.597 0.501923 384.77 0.501923C394.897 0.501923 402.482 3.04497 407.568 8.08645C412.654 13.1279 415.197 21.2032 415.197 32.2677C415.197 42.7968 412.654 50.649 407.523 55.7797C402.392 60.9104 394.808 63.4535 384.77 63.4535C374.731 63.4535 367.147 60.9104 362.016 55.7797ZM396.013 46.0537C398.377 43.1091 399.582 38.5138 399.582 32.2677C399.582 25.5309 398.422 20.7125 396.057 17.8571C393.737 15.0017 389.945 13.5741 384.77 13.5741C379.505 13.5741 375.757 15.0017 373.393 17.8571C371.073 20.7125 369.868 25.4862 369.868 32.2677C369.868 38.5138 371.073 43.1091 373.437 46.0537C375.802 48.9983 379.594 50.4706 384.77 50.4706C389.9 50.4706 393.648 48.9983 396.013 46.0537ZM416.714 13.2172H434.604H434.649V62.472H449.907V13.2172H467.798V1.48345H416.714V13.2172ZM260.16 1.48345H230.135V16.3402C241.913 14.2433 253.78 11.9233 253.78 11.9233C258.108 11.2095 261.097 11.1203 262.48 12.1464C263.328 12.771 263.685 13.2172 263.685 13.2172C266.005 13.4848 267.299 13.8864 267.522 14.4664C267.745 15.1802 266.719 16.2064 264.443 17.4556C261.677 18.9725 257.974 19.9986 253.022 21.114C247.936 22.274 239.102 23.9247 239.102 23.9247C239.637 25.0847 239.905 27.0031 239.548 28.1631C236.37 29.2896 233.845 29.1826 231.547 29.0853C231.297 29.0747 231.049 29.0642 230.804 29.0554C230.804 29.0554 230.491 29.0108 230.179 28.6539V40.5214V62.4273H245.437V40.1645H259.848C264.22 40.1645 281.62 38.3799 281.62 21.9617C281.576 7.28338 267.165 1.48345 260.16 1.48345ZM220.676 39.3168H194.487V50.7829H224.245V62.5166H179.229V1.48345H187.884H224.245V17.3663C216.036 18.7494 208.942 19.8648 207.292 19.6863C205.106 19.5971 203.276 18.9725 201.67 17.8125C201.67 17.8125 198.012 15.091 190.74 9.64797C190.338 9.33566 189.847 9.24644 189.357 9.38028C189.357 9.38028 188.241 9.60335 186.055 10.0049C186.055 10.0049 188.91 14.9571 194.532 24.9062C194.175 25.0847 193.996 25.4416 194.041 25.7985C194.175 26.6462 195.023 27.0031 196.54 27.137C199.752 27.4493 211.039 27.9401 220.676 27.0478V39.3168Z" fill="white"/>
</svg>
