<svg width="224" height="48" viewBox="0 0 224 48" fill="none" xmlns="http://www.w3.org/2000/svg">
<path d="M206.096 31.8111C206.005 31.8714 205.914 31.9296 205.822 31.984C205.373 32.2532 204.834 32.5214 204.293 32.88C203.753 33.1492 203.213 33.4174 202.674 33.5962L201.054 34.1346C200.514 34.224 200.063 34.3134 199.613 34.3134C199.164 34.3134 198.804 34.224 198.444 34.0442C198.117 33.8794 197.838 33.6327 197.634 33.328C197.364 32.9705 197.184 32.6108 197.003 32.1628C196.824 31.7159 196.734 31.2679 196.554 30.64C196.104 31.1774 195.654 31.7159 195.205 32.1628C194.747 32.6062 194.266 33.025 193.764 33.4174C193.315 33.775 192.776 34.0442 192.235 34.224C191.694 34.4028 191.245 34.4922 190.794 34.4922C190.436 34.4922 190.075 34.4028 189.715 34.3134C189.356 34.224 189.085 33.9559 188.815 33.6866C188.546 33.4174 188.365 32.9694 188.185 32.432C188.151 32.3289 188.12 32.2224 188.092 32.1126C187.507 32.517 186.856 32.9144 186.206 33.2386C185.486 33.5962 184.676 33.9548 183.955 34.1346C183.146 34.4028 182.426 34.4922 181.796 34.4922C181.166 34.4922 180.627 34.4028 180.266 34.224C179.817 34.0452 179.547 33.776 179.278 33.5068C179.006 33.2386 178.827 32.7906 178.737 32.3426C178.709 32.2012 178.68 32.0598 178.655 31.9156C178.446 32.0579 178.231 32.2003 178.017 32.3426C177.477 32.7002 177.027 33.0588 176.397 33.328C175.858 33.5962 175.317 33.8654 174.687 34.0442C174.073 34.2213 173.437 34.3119 172.797 34.3134C172.168 34.3134 171.628 33.8654 171.178 32.88C170.728 31.984 170.548 30.5506 170.548 28.6692C170.548 27.9531 170.638 27.2359 170.728 26.3399C170.818 25.5343 170.908 24.6383 171.089 23.6529H170.908L166.138 32.9705C165.869 33.4174 165.599 33.776 165.329 33.9548C165.059 34.1336 164.699 34.224 164.34 34.224C163.889 34.224 163.439 34.1346 163.17 33.9548C162.864 33.7531 162.616 33.4755 162.449 33.1493C162.269 32.7906 162.179 32.432 162.09 31.984C162.125 31.8767 162.133 31.7405 162.128 31.587C162.026 31.6612 161.923 31.7339 161.819 31.8052L160.2 32.88C159.597 33.2322 158.964 33.5319 158.31 33.776C157.68 34.0442 156.961 34.224 156.331 34.4028C155.431 34.4922 154.711 34.4922 153.991 34.4922C152.911 34.4922 151.921 34.3134 151.021 33.8654C150.205 33.5138 149.492 32.9587 148.951 32.2532C148.412 31.536 147.962 30.8199 147.692 29.9239C147.421 29.0279 147.241 28.1319 147.241 27.1475C147.241 26.5197 147.332 25.8025 147.421 25.0863C147.512 24.3691 147.782 23.6529 148.052 22.9357C148.322 22.2195 148.681 21.5927 149.041 20.8755C149.492 20.2487 149.941 19.622 150.482 19.174C151.021 18.726 151.651 18.278 152.281 18.0087C152.995 17.714 153.759 17.5618 154.531 17.5607C155.16 17.5607 155.79 17.6501 156.42 17.9194C156.961 18.0981 157.5 18.4567 157.95 18.8154C158.4 19.1729 158.67 19.622 158.94 20.2487C159.21 20.7861 159.3 21.4129 159.3 22.0407C159.3 22.7569 159.121 23.4741 158.76 24.2807C158.4 24.9959 157.86 25.7131 157.23 26.3399C156.559 27.0051 155.803 27.5777 154.981 28.0425C154.08 28.5799 153.091 28.9385 152.101 29.2066C152.281 29.5652 152.461 29.8345 152.641 30.0132L153.181 30.5506L153.721 30.8199C153.9 30.9092 154.08 30.9093 154.352 30.9093C155.071 30.9093 155.79 30.7305 156.6 30.4612C157.41 30.192 158.13 29.8345 158.94 29.3865C159.66 28.9385 160.381 28.4905 161.1 27.9531C161.55 27.5692 162 27.231 162.384 26.9058C162.446 26.2819 162.522 25.639 162.629 24.9969C162.809 23.9211 162.899 22.9357 163.079 21.9503C163.232 21.1085 163.412 20.272 163.62 19.4421C163.711 18.9293 163.963 18.4587 164.339 18.0981C164.699 17.7406 165.239 17.5618 165.869 17.5618C166.499 17.5618 166.949 17.7406 167.218 18.1886C167.489 18.5461 167.578 19.0835 167.578 19.7114C167.578 19.8901 167.578 20.1594 167.489 20.4275C167.489 20.6967 167.398 21.0554 167.398 21.4129C167.309 21.7715 167.309 22.1301 167.22 22.4877C167.129 22.8463 167.129 23.2049 167.039 23.5635C166.949 23.9211 166.949 24.1903 166.949 24.3691C166.949 24.6383 166.859 24.8171 166.859 24.8171H167.218C167.309 24.7277 167.398 24.4595 167.578 24.1903C167.759 23.9211 167.939 23.5635 168.119 23.2049C168.299 22.8474 168.569 22.3983 168.749 22.0407C169.019 21.5927 169.199 21.2341 169.379 20.8755C169.558 20.518 169.738 20.1594 169.918 19.8901C170.098 19.622 170.188 19.3527 170.278 19.2634C170.638 18.6366 171.087 18.1886 171.538 17.9194C171.988 17.6501 172.528 17.5618 173.157 17.5618C173.788 17.5618 174.237 17.83 174.598 18.2769C174.958 18.8154 175.137 19.4421 175.137 20.3381C175.137 20.4275 175.137 20.6957 175.048 20.9649C174.958 21.2341 174.958 21.6821 174.867 22.0407C174.778 22.4877 174.688 22.9357 174.598 23.4741C174.507 24.0105 174.418 24.5489 174.328 24.9969C174.237 25.5332 174.148 26.0717 174.148 26.6091C174.057 27.1465 174.057 27.5945 174.057 28.0425C174.057 28.7586 174.148 29.3865 174.328 29.8345C174.507 30.2825 174.778 30.5506 175.228 30.5506C175.407 30.5506 175.587 30.4612 175.858 30.3719C176.127 30.2825 176.307 30.1026 176.577 29.9239C176.847 29.7451 177.118 29.5663 177.387 29.2971C177.657 29.0279 177.927 28.8491 178.197 28.5799C178.427 28.3836 178.657 28.1754 178.892 27.9552C179.051 27.0866 179.22 26.2104 179.458 25.2651C179.727 24.1903 179.997 23.1155 180.267 22.1301C180.536 21.0554 180.807 20.0689 180.987 19.174C181.077 18.9047 181.257 18.6366 181.526 18.3674L182.336 17.83C182.697 17.6512 182.967 17.5607 183.327 17.5607C183.686 17.4714 183.956 17.4714 184.226 17.4714C184.766 17.4714 185.035 17.5607 185.216 17.7406C185.395 17.9194 185.486 18.1886 185.486 18.4567C185.486 18.726 185.396 19.0835 185.307 19.622C185.216 20.0689 185.035 20.6967 184.856 21.3235C184.664 21.9773 184.484 22.6343 184.316 23.2943L183.777 25.4449C183.596 26.1611 183.416 26.8783 183.327 27.5051C183.236 28.2212 183.147 28.7586 183.147 29.3865C183.147 29.9228 183.236 30.3719 183.325 30.64C183.416 30.9986 183.686 31.088 184.046 31.088C184.496 31.088 184.946 30.9092 185.487 30.64C186.066 30.3452 186.609 29.9846 187.106 29.5652C187.415 29.3088 187.724 29.0524 188.016 28.796C188.072 28.2685 188.156 27.6887 188.276 27.0571C188.455 25.6237 188.726 24.0115 189.085 22.1301C189.085 21.9514 189.176 21.6821 189.176 21.4129C189.265 21.1447 189.355 20.7861 189.445 20.4275C189.535 20.07 189.715 19.7114 189.895 19.3527C190.075 18.9952 190.255 18.6366 190.526 18.3674C190.795 18.0981 190.975 17.83 191.336 17.6501C191.605 17.4714 191.965 17.382 192.324 17.382C192.955 17.382 193.404 17.4714 193.675 17.6501C193.945 17.7406 194.125 17.9194 194.125 18.1886C194.034 18.8154 193.855 19.5315 193.764 20.2487C193.675 21.0554 193.495 21.7715 193.404 22.5781C193.315 23.3837 193.135 24.1009 193.045 24.8181C192.954 25.5332 192.774 26.2505 192.685 26.7879C192.611 27.2686 192.521 27.7467 192.415 28.2212C192.324 28.5799 192.324 28.7586 192.324 28.7586C192.324 28.9374 192.324 29.2066 192.415 29.3865C192.415 29.5652 192.505 29.744 192.595 29.9228C192.685 30.1026 192.774 30.192 192.954 30.2825C193.045 30.3719 193.225 30.4612 193.404 30.4612C193.675 30.4612 193.945 30.3719 194.214 30.2825C194.484 30.1037 194.755 29.9239 195.024 29.6546C195.284 29.3942 195.497 29.0912 195.655 28.7586C195.834 28.4011 196.015 27.9531 196.104 27.5051L197.904 18.3674C197.994 18.0981 198.174 17.83 198.624 17.6501C199.074 17.4714 199.524 17.382 200.064 17.382C200.693 17.382 201.143 17.4714 201.503 17.7395C201.864 17.83 202.044 18.0981 202.044 18.4567C202.044 18.8143 202.044 19.174 201.953 19.8007C201.864 20.3381 201.773 20.9649 201.683 21.5927C201.594 22.2195 201.414 22.9357 201.323 23.6529C201.234 24.3691 201.053 24.9969 200.964 25.6237C200.888 26.1634 200.798 26.701 200.693 27.2359C200.604 27.6839 200.604 28.0425 200.604 28.2212V29.1172C200.604 29.3865 200.693 29.6546 200.693 29.8345C200.784 30.0132 200.873 30.192 200.964 30.2825C201.053 30.3719 201.234 30.4612 201.503 30.4612C201.773 30.4612 202.044 30.3719 202.493 30.2825C202.913 30.1788 203.311 29.9961 203.663 29.744C203.668 29.7423 203.672 29.7406 203.676 29.7388C203.704 29.5316 203.773 29.3247 203.843 29.1172C204.023 28.8491 204.113 28.6692 204.383 28.4905L204.923 27.9531C205.102 27.8637 205.283 27.6839 205.373 27.5945C206.003 27.0571 206.543 26.5197 206.993 26.1611C207.443 25.8035 207.802 25.4449 208.073 25.0863C208.342 24.8171 208.612 24.4595 208.882 24.1009C209.152 23.7434 209.422 23.3837 209.782 22.9357C210.142 22.4877 210.502 21.9503 210.952 21.3235C211.538 20.5125 212.169 19.7349 212.842 18.9941C213.021 18.8154 213.202 18.5461 213.381 18.3674C213.561 18.1886 213.741 18.0098 214.012 17.83C214.282 17.6512 214.461 17.5607 214.822 17.4724C215.091 17.382 215.451 17.2926 215.721 17.2926C216.177 17.2957 216.63 17.3558 217.071 17.4714C217.341 17.5607 217.611 17.7406 217.791 17.9194C217.971 18.0981 218.061 18.2769 218.061 18.4567V18.9941C218.061 19.2634 217.971 19.622 217.701 19.8901C217.522 20.2477 217.25 20.6074 216.981 20.8755C216.711 21.2331 216.441 21.5023 216.171 21.7715C215.983 21.9503 215.831 22.163 215.721 22.3983C215.721 22.7569 215.721 23.1155 215.811 23.3837C215.901 23.6529 215.901 24.0115 215.992 24.2797C216.081 24.5489 216.17 24.9065 216.261 25.1757C216.351 25.5332 216.441 25.8929 216.531 26.3399C216.622 26.7879 216.711 27.2359 216.711 27.7732C216.801 28.3117 216.801 29.0279 216.801 29.744L218.151 28.9385C218.601 28.6692 219.14 28.4905 219.681 28.2212L221.3 27.4157C221.84 27.1465 223.1 26.5197 223.73 27.7732C224.27 29.0279 222.29 30.8199 221.84 31.1774C221.391 31.4466 221.03 31.7159 220.491 31.8946C219.501 32.432 218.51 32.7906 217.43 33.2386C216.351 33.5962 215.271 33.9548 214.191 34.1346C213.111 34.3134 212.032 34.4922 211.131 34.4922C210.412 34.4922 209.782 34.4028 209.152 34.3134C208.522 34.224 207.982 33.9559 207.532 33.6866C207.088 33.4237 206.717 33.0539 206.452 32.6108C206.307 32.37 206.189 32.1035 206.096 31.8111ZM208.073 30.2825L208.703 30.9093C208.972 31.088 209.152 31.3572 209.512 31.536C209.782 31.7148 210.142 31.8052 210.501 31.8052C210.952 31.8052 211.312 31.7159 211.671 31.536C211.942 31.3572 212.212 31.1785 212.392 30.9093C212.572 30.64 212.662 30.3719 212.751 30.0132C212.842 29.6557 212.842 29.2971 212.842 28.9385C212.842 28.5809 212.842 28.3117 212.751 27.9531C212.751 27.5945 212.662 27.3252 212.572 26.9677C212.481 26.6985 212.392 26.3399 212.392 26.0717C212.301 25.8025 212.212 25.5343 212.212 25.3545L208.073 29.5563V30.2825ZM121.574 31.3796C120.869 31.9057 120.12 32.412 119.436 32.7906C119.076 32.9694 118.717 33.2386 118.356 33.4174L117.277 33.9548C116.916 34.1336 116.557 34.224 116.197 34.3124C115.836 34.4028 115.566 34.4922 115.206 34.4922C115.028 34.4922 114.757 34.4922 114.487 34.4028C114.127 34.3134 113.767 34.224 113.407 33.9548C113.047 33.776 112.597 33.4185 112.238 32.9694C111.836 32.4791 111.504 31.9368 111.248 31.3572C110.798 31.8052 110.348 32.1628 109.807 32.6108C109.358 32.9694 108.819 33.328 108.278 33.5962C107.738 33.8654 107.198 34.1346 106.659 34.3134C106.137 34.4894 105.59 34.5799 105.039 34.5816C104.229 34.5816 103.598 34.4028 103.059 34.0452C102.519 33.6866 102.069 33.2386 101.618 32.7012C101.603 32.6781 101.588 32.6548 101.573 32.6314C101.439 32.745 101.304 32.8572 101.169 32.9694C100.629 33.4174 99.9996 33.8654 99.3696 34.1346C98.7386 34.4922 98.0193 34.5816 97.3894 34.5816C96.5796 34.5816 95.9497 34.3134 95.4102 33.8654C94.8696 33.328 94.4206 32.6108 94.0599 31.7159C93.7907 32.0734 93.43 32.3426 92.9799 32.7012C92.5308 33.0588 92.0807 33.328 91.6306 33.5962C91.1473 33.8887 90.6344 34.1291 90.1005 34.3134C89.5786 34.4894 89.0317 34.5799 88.4809 34.5816C87.9414 34.5816 87.3115 34.4922 86.771 34.224C86.2315 33.9548 85.7824 33.6866 85.3312 33.2386C84.9604 32.8695 84.7123 32.4397 84.4853 31.9486L83.0818 32.88C82.4786 33.2322 81.8464 33.5319 81.192 33.776C80.562 34.0442 79.8427 34.224 79.2128 34.4028C78.3126 34.4922 77.5933 34.4922 76.8729 34.4922C75.7928 34.4922 74.8033 34.3134 73.903 33.8654C73.1286 33.5318 72.4476 33.0152 71.918 32.3607C71.5227 32.5121 71.1167 32.6545 71.0236 32.7012C70.8438 32.88 70.5735 32.9694 70.3043 32.9694C69.1338 33.4174 67.9644 33.8654 66.7045 34.224C66.164 34.4028 65.6245 34.4922 65.085 34.672C64.5445 34.8508 63.9145 34.9402 63.2846 35.0296C62.6547 35.12 62.1152 35.2084 61.4852 35.2988C60.8553 35.3882 60.3158 35.3882 59.6859 35.3882C58.7857 35.3882 58.0663 35.2094 57.5258 34.9402C56.9863 34.672 56.5362 34.224 56.1765 33.6866C55.8158 33.1492 55.636 32.6108 55.4562 31.8946C55.3657 31.1774 55.2763 30.4612 55.2763 29.744C54.2867 30.4612 53.3865 31.088 52.6662 31.536C51.9468 31.984 51.4967 32.1628 51.3169 32.1628C51.1371 32.1628 50.9572 32.0734 50.7774 31.984L50.2369 31.4466C50.0817 31.2273 49.9605 30.9859 49.8772 30.7305C49.7868 30.4612 49.7868 30.192 49.7868 29.9239C49.7868 29.7451 49.7868 29.4759 49.8772 29.2971C49.6069 29.0279 49.7868 28.8491 49.9666 28.7586C50.1475 28.6692 50.4167 28.4905 50.7764 28.2223C51.1371 27.9531 51.5861 27.6839 52.0362 27.3252L53.6558 26.2505C54.1963 25.8929 54.8262 25.4449 55.3657 25.0863L55.5466 23.9211C55.7952 21.5939 56.2159 19.2883 56.8054 17.0234C57.346 14.9621 58.0653 13.0818 58.8761 11.2898C59.6859 9.58823 60.4956 8.15485 61.4852 6.81085C62.3854 5.55624 63.375 4.48146 64.3646 3.6759C65.3542 2.86929 66.2544 2.24251 67.244 1.79346C68.0538 1.38519 68.9474 1.17062 69.8542 1.16668C70.4842 1.16668 71.0236 1.25712 71.4737 1.52529C72.0132 1.79451 72.374 2.06268 72.7336 2.51068C73.0933 2.95868 73.3636 3.49607 73.5434 4.21329C73.7232 4.84007 73.8137 5.64668 73.8137 6.54268C73.8137 7.61746 73.6338 8.78268 73.2731 10.0362C72.9135 11.2004 72.4633 12.455 71.8334 13.7086C71.2035 14.9632 70.4841 16.1274 69.6744 17.382C68.8646 18.6366 67.874 19.8007 66.7939 20.9649C65.715 22.1301 64.6349 23.2049 63.4644 24.1903C62.2795 25.1868 61.0159 26.0857 59.6859 26.8783C59.6859 27.5945 59.5954 28.1319 59.5954 28.5799V30.4612C59.5954 30.5506 59.5954 30.64 59.6859 30.7305C59.6859 30.8199 59.7753 30.9093 59.9551 30.9093C60.0455 30.9986 60.2254 30.9986 60.4956 30.9986H61.3948C61.9353 30.9986 62.6547 30.9092 64.005 30.4612C64.005 30.4612 69.3137 28.9385 69.4041 28.9385C69.4535 28.9385 69.8606 28.7743 70.2605 28.6425C70.1736 28.1601 70.1234 27.666 70.1234 27.1475C70.1234 26.5197 70.2139 25.8025 70.3043 25.0863C70.3937 24.3691 70.664 23.6529 70.9343 22.9357C71.2035 22.2195 71.5631 21.5927 71.9228 20.8755C72.303 20.2307 72.7902 19.6552 73.3636 19.174C73.903 18.726 74.533 18.278 75.1629 18.0087C75.8767 17.714 76.6412 17.5618 77.4134 17.5607C78.0423 17.5607 78.6722 17.6501 79.3022 17.9194C79.8427 18.0981 80.3822 18.4567 80.8323 18.8154C81.2824 19.1729 81.5516 19.622 81.8219 20.2487C82.0922 20.7861 82.1816 21.4129 82.1816 22.0407C82.1816 22.7569 82.0028 23.4741 81.6421 24.2807C81.2824 24.9959 80.7419 25.7131 80.1119 26.3399C79.4414 27.0051 78.6848 27.5777 77.8625 28.0425C76.9633 28.5799 75.9727 28.9385 74.9831 29.2066C75.1629 29.5652 75.3427 29.8345 75.5226 30.0132L76.0631 30.5506L76.6026 30.8199C76.7824 30.9092 77.0527 30.9093 77.2336 30.9093C77.9529 30.9093 78.6722 30.7305 79.482 30.4612C80.2918 30.192 81.0122 29.8345 81.8219 29.3865C82.5423 28.9385 83.2627 28.4905 83.982 27.9531C84.0255 27.916 84.069 27.8793 84.1124 27.843C84.1674 27.5007 84.2423 27.1508 84.3416 26.7889C84.6119 25.8929 84.9716 24.9065 85.4217 24.0115C85.8718 23.1155 86.4113 22.3089 86.9508 21.5023C87.5818 20.6967 88.2107 19.9795 88.931 19.4421C89.6028 18.8511 90.3619 18.3676 91.1815 18.0087C91.9913 17.6512 92.8011 17.4724 93.6108 17.4724C93.8801 17.4724 94.0599 17.5607 94.2397 17.6512C94.4206 17.7406 94.51 17.9194 94.6004 18.0087C94.6898 18.1875 94.7792 18.278 94.8696 18.3674C94.9601 18.4567 95.0495 18.6366 95.2304 18.6366C95.4091 18.726 95.4996 18.726 95.6794 18.726H96.8499C97.0287 18.726 97.2096 18.726 97.3894 18.8154C97.5692 18.8154 97.6597 18.9047 97.8395 19.0835C97.9299 19.174 98.0193 19.3527 98.1098 19.622C98.1992 19.8007 98.1992 20.1583 98.1992 20.5169C98.1992 21.0554 98.1098 21.6821 98.0204 22.3994C97.9299 23.1145 97.749 23.8317 97.6597 24.5489C97.4798 25.2651 97.3894 25.9823 97.3 26.6985C97.2096 27.4157 97.1202 28.1319 97.1202 28.7597C97.1202 29.296 97.2096 29.744 97.299 30.1026C97.3946 30.3695 97.6465 30.5483 97.9299 30.5506C98.1992 30.5506 98.4694 30.4612 98.7397 30.3719C99.0089 30.2825 99.2792 30.1026 99.5495 29.9239C99.8197 29.7451 100.089 29.4759 100.359 29.2066L100.546 29.0204C100.542 28.9034 100.539 28.7864 100.539 28.6692C100.539 27.9531 100.63 27.1465 100.809 26.3399C100.975 25.5461 101.279 24.7878 101.708 24.0999C102.074 23.3613 102.527 22.6699 103.059 22.0407C103.598 21.4129 104.228 20.7861 104.858 20.3381C105.579 19.8007 106.299 19.4421 107.109 19.0835C107.918 18.726 108.728 18.5472 109.627 18.4567C109.627 16.934 109.807 15.4112 110.077 13.8884C110.348 12.455 110.618 11.0216 111.067 9.58718C111.428 8.24424 111.877 6.98962 112.417 5.91485C112.957 4.75068 113.497 3.76529 114.127 2.95973C114.757 2.15207 115.387 1.52529 116.107 0.987897C116.827 0.539898 117.547 0.271729 118.357 0.271729C118.897 0.271729 119.346 0.450508 119.796 0.718677C120.156 0.987898 120.516 1.4359 120.786 1.8839C121.056 2.3319 121.235 2.95868 121.326 3.58546C121.416 4.21329 121.506 4.84007 121.506 5.55624C121.506 6.00424 121.506 6.36285 121.416 6.81085C121.235 8.51346 120.966 10.0362 120.516 11.6484C120.103 13.1329 119.623 14.5976 119.075 16.038C118.536 17.4714 117.906 18.8143 117.277 20.3381C116.646 21.6821 116.017 23.2049 115.387 24.7277C115.297 24.9065 115.297 25.0852 115.206 25.3545C115.117 25.6237 115.117 25.8929 115.028 26.1611C114.937 26.4303 114.937 26.6985 114.937 26.9677C114.937 27.2359 114.847 27.504 114.847 27.7732C114.847 28.1319 114.847 28.4011 114.937 28.7586C114.937 29.0279 115.026 29.2971 115.116 29.5652C115.206 29.8345 115.297 30.0132 115.477 30.1026C115.656 30.2814 115.836 30.2814 116.108 30.2814C116.377 30.2814 116.557 30.2814 116.827 30.192C117.096 30.1026 117.366 30.0132 117.637 29.8345C117.906 29.6557 118.267 29.4759 118.536 29.2971C118.806 29.1183 119.167 28.9385 119.436 28.6692C119.865 28.3681 120.284 28.0544 120.694 27.7285C120.635 27.179 120.606 26.6259 120.607 26.0717C120.607 24.0105 120.876 21.8609 121.326 19.9795C121.865 18.0981 122.495 16.3072 123.395 14.6056C124.296 12.9924 125.376 11.4696 126.545 10.0362C127.715 8.60285 129.065 7.52807 130.505 6.63207C131.944 5.64668 133.384 4.92946 135.004 4.48146C136.506 3.94634 138.089 3.67384 139.683 3.67589C140.672 3.67589 141.483 3.85468 142.292 4.1239C143.102 4.39207 143.823 4.84007 144.453 5.46685C145.082 6.09468 145.533 6.81085 145.892 7.79624C146.252 8.69223 146.432 9.85746 146.432 11.111C146.432 11.6484 146.342 12.0964 146.253 12.6338C146.162 13.0818 145.892 13.6192 145.622 14.1566C145.262 14.694 144.903 15.142 144.542 15.3218C144.182 15.59 143.823 15.6794 143.553 15.6794C143.282 15.6794 143.102 15.59 142.833 15.5006C142.652 15.4112 142.472 15.2314 142.292 14.9632C142.113 14.7844 142.022 14.5152 141.933 14.246C141.842 13.9778 141.842 13.7096 141.842 13.4404C141.842 13.1712 141.842 12.9924 141.933 12.8126C142.022 12.6338 142.113 12.3656 142.113 12.1858C142.203 12.007 142.292 11.7378 142.292 11.559C142.383 11.2898 142.383 11.111 142.383 10.8418C142.383 9.67763 142.113 8.78162 141.573 8.15485C141.033 7.52807 140.403 7.25885 139.593 7.25885C138.541 7.25908 137.5 7.47228 136.533 7.88562C135.454 8.24424 134.464 8.87101 133.384 9.58823C132.394 10.3044 131.405 11.2898 130.505 12.3646C129.604 13.4404 128.795 14.694 128.075 16.1274C127.355 17.5607 126.815 19.0835 126.365 20.8755C125.915 22.6675 125.734 24.3691 125.734 26.4303C125.734 27.6839 125.915 28.6703 126.185 29.6546C126.455 30.5506 126.905 31.3572 127.445 31.8946C127.985 32.5214 128.705 32.9694 129.515 33.2386C130.325 33.5068 131.224 33.6866 132.215 33.6866C134.104 33.6866 135.813 33.4174 137.523 32.9694C139.143 32.432 140.584 31.8052 142.113 30.8199C142.203 30.4612 142.292 30.1026 142.383 29.8345C142.472 29.4759 142.472 29.2066 142.472 28.9385C142.472 28.5809 142.383 28.3117 142.293 28.1319C142.203 27.9531 142.113 27.7743 141.933 27.6839C141.753 27.5945 141.573 27.5051 141.392 27.5051H140.673C140.223 27.5051 139.863 27.4157 139.503 27.3263C139.143 27.2359 138.872 27.0571 138.603 26.8783C138.374 26.7173 138.188 26.5015 138.064 26.2505C137.973 25.9823 137.883 25.7141 137.883 25.5343C137.883 25.2651 137.973 25.0863 138.064 24.8171C138.153 24.5489 138.333 24.3691 138.603 24.1903C138.874 24.0115 139.143 23.8327 139.503 23.7423C139.863 23.6529 140.313 23.5635 140.763 23.5635C141.933 23.5635 142.833 23.6529 143.643 23.9211C144.362 24.1903 144.992 24.5489 145.352 24.9969C145.802 25.4449 146.072 25.9823 146.252 26.6985C146.252 26.7879 146.342 27.5051 146.342 28.4905C146.342 29.8345 146.252 31.2668 146.072 32.88C145.89 34.3878 145.619 35.8837 145.262 37.36C144.903 38.7924 144.453 40.1364 143.822 41.4804C143.193 42.8244 142.472 43.8991 141.663 44.7951C140.822 45.7214 139.814 46.4813 138.693 47.0351C137.523 47.5715 136.263 47.8407 134.734 47.8407C134.464 47.8407 134.103 47.8407 133.744 47.7513C133.384 47.7513 132.934 47.6619 132.574 47.5725C132.143 47.4947 131.721 47.3746 131.314 47.2139C130.864 47.0351 130.505 46.9447 130.234 46.6755C129.875 46.4967 129.695 46.2285 129.425 45.9593C129.242 45.6968 129.147 45.3831 129.154 45.0633C129.154 44.8845 129.154 44.6153 129.245 44.3471C129.335 44.0779 129.425 43.8097 129.604 43.5405C129.784 43.2713 129.964 43.0031 130.235 42.8244C130.499 42.6423 130.814 42.5481 131.135 42.5551C131.494 42.5551 131.944 42.6445 132.304 42.7339C132.664 42.8244 133.024 43.0031 133.474 43.1819C133.834 43.3607 134.284 43.4511 134.734 43.6299C135.183 43.7193 135.633 43.8087 136.084 43.8087C136.623 43.8087 137.164 43.5405 137.703 43.0031C138.244 42.4658 138.783 41.6591 139.233 40.7631C139.683 39.8671 140.133 38.7924 140.582 37.7176C140.943 36.5534 141.303 35.4776 141.573 34.3134C141.033 34.8508 140.403 35.2988 139.773 35.8362C139.143 36.2842 138.423 36.7322 137.614 37.0908C136.804 37.4484 135.904 37.7176 134.824 37.8964C133.744 38.0751 132.573 38.1656 131.224 38.1656C129.699 38.1686 128.193 37.832 126.815 37.1802C125.54 36.5498 124.407 35.666 123.486 34.5826C122.717 33.6637 122.08 32.615 121.574 31.3796ZM60.2254 22.3983C60.8553 21.7715 61.4852 21.0554 62.1152 20.3381C62.7451 19.622 63.4644 18.8154 64.0944 18.0087C64.7457 17.189 65.3759 16.3527 65.9842 15.5006C66.6152 14.694 67.1546 13.799 67.6037 12.9924C68.0538 12.1858 68.5039 11.3802 68.7742 10.5736C69.0967 9.86328 69.3091 9.10795 69.4041 8.33362C69.4041 8.06546 69.4935 7.88562 69.4935 7.61746V6.98962C69.4935 6.27346 69.4041 5.82546 69.2243 5.55624C69.0444 5.28807 68.7742 5.10929 68.5039 5.10929C68.1442 5.10929 67.6941 5.28807 67.1546 5.73607C66.6141 6.09363 66.0746 6.72146 65.5351 7.43762C64.9946 8.15485 64.4551 9.05085 63.8251 10.1256C63.2512 11.274 62.7111 12.4391 62.2056 13.6192C61.696 15.0248 61.2753 16.461 60.9457 17.9194C60.6755 19.0835 60.4052 20.7851 60.2254 22.3983ZM74.4436 26.0717C74.8926 26.0717 75.3427 25.9823 75.8833 25.7141C76.4228 25.5343 76.8718 25.1757 77.323 24.9065C77.7731 24.5489 78.1328 24.1903 78.403 23.8317C78.6722 23.4741 78.8521 23.0261 78.8521 22.6675C78.8521 22.1301 78.7627 21.6821 78.5829 21.3235C78.403 20.966 78.1328 20.7861 77.8625 20.7861C77.323 20.7861 76.8729 20.8755 76.5132 21.0554C76.1525 21.2341 75.8822 21.5023 75.613 21.7715C75.3427 22.0407 75.1629 22.3983 74.9831 22.8463C74.8033 23.2049 74.7128 23.6529 74.6234 24.0115C74.533 24.3691 74.533 24.8171 74.4436 25.1757V26.0717ZM88.3915 28.7586C88.3915 29.0279 88.3915 29.2971 88.4809 29.6546C88.4809 29.9239 88.5714 30.192 88.6607 30.3719C88.7512 30.5506 88.931 30.7294 89.1109 30.9082C89.2907 30.9986 89.4705 31.088 89.8312 31.088C90.2803 31.088 90.641 30.9092 91.0007 30.5517C91.3603 30.192 91.6306 29.744 91.9009 29.2066C92.1701 28.6703 92.3499 28.1319 92.5308 27.5945C92.7096 27.0571 92.8 26.5197 92.8 26.1611L93.8801 20.8755C93.4299 20.8755 92.8905 20.9649 92.4404 21.2331C91.9903 21.5023 91.5401 21.7715 91.0911 22.2195C90.641 22.6675 90.2813 23.1155 89.9206 23.6529C89.5676 24.1904 89.2662 24.7602 89.0204 25.3545C88.7512 25.9823 88.5714 26.5197 88.4809 27.1465C88.4809 27.5945 88.3915 28.2212 88.3915 28.7586ZM109.627 21.0554C108.818 21.4129 108.098 21.9503 107.558 22.5781C106.928 23.2049 106.478 23.8317 106.029 24.5489C105.616 25.2127 105.312 25.9384 105.128 26.6985C104.949 27.4157 104.769 28.1319 104.769 28.6692C104.769 28.9385 104.769 29.1172 104.858 29.3865C104.949 29.6546 105.038 29.8345 105.128 30.0132C105.308 30.192 105.488 30.3708 105.758 30.4612C106.029 30.5506 106.388 30.64 106.748 30.64C106.928 30.64 107.198 30.5506 107.379 30.4612C107.609 30.3424 107.82 30.1916 108.008 30.0132C108.188 29.8345 108.367 29.6557 108.548 29.3865C108.727 29.2077 108.908 28.9385 108.997 28.6692C109.358 28.1329 109.628 27.5051 109.898 26.7879C109.898 26.6091 109.807 26.3399 109.807 25.9823C109.807 25.6237 109.807 25.1757 109.718 24.8171V21.2352C109.627 21.1458 109.627 20.9649 109.627 21.0554ZM118.087 7.97501C118.176 7.16946 118.176 6.45223 118.176 6.00423C118.176 5.37746 118.087 4.92946 117.997 4.66129C117.906 4.39207 117.726 4.30268 117.546 4.30268C117.187 4.30268 116.827 4.57085 116.466 5.01885C116.197 5.46685 115.927 6.09468 115.656 6.81085C115.387 7.52807 115.206 8.42301 115.026 9.31902C114.848 10.215 114.667 11.111 114.577 11.9166C114.498 12.6645 114.408 13.4112 114.307 14.1566C114.217 14.8738 114.217 15.3218 114.127 15.59C114.127 16.1274 114.037 16.7552 114.037 17.2926C114.037 17.8289 113.948 18.278 113.948 18.726V20.7861C114.667 19.2634 115.206 17.7406 115.836 16.1274C116.107 15.5006 116.286 14.7844 116.557 14.0672C116.827 13.351 117.007 12.6338 117.187 11.9176L117.726 9.76701C117.906 9.23068 118.087 8.60285 118.087 7.97501ZM151.651 26.0717C152.101 26.0717 152.551 25.9823 153.092 25.7141C153.631 25.5343 154.08 25.1757 154.53 24.9065C154.981 24.5489 155.34 24.1903 155.61 23.8317C155.881 23.4741 156.061 23.0261 156.061 22.6675C156.061 22.1301 155.97 21.6821 155.79 21.3235C155.612 20.966 155.34 20.7861 155.071 20.7861C154.53 20.7861 154.08 20.8755 153.721 21.0554C153.361 21.2341 153.091 21.5023 152.82 21.7715C152.551 22.0407 152.371 22.3983 152.192 22.8463C152.011 23.2049 151.921 23.6529 151.831 24.0115C151.741 24.3691 151.741 24.8171 151.652 25.1757V26.0717H151.651ZM181.797 12.3656C181.797 12.0964 181.887 11.8272 181.976 11.4696C182.067 11.111 182.246 10.8418 182.517 10.4842C182.843 10.173 183.205 9.90215 183.596 9.67762C184.046 9.49885 184.586 9.4084 185.306 9.4084C185.756 9.4084 186.115 9.49885 186.476 9.58718C186.836 9.67763 187.196 9.85641 187.465 10.0362C187.735 10.215 187.916 10.4842 188.096 10.8418C188.274 11.2004 188.365 11.559 188.365 12.007C188.365 12.455 188.276 12.8126 188.186 13.1712C188.096 13.5298 187.825 13.8884 187.555 14.1566C187.248 14.4659 186.881 14.7099 186.476 14.8738C186.026 15.0526 185.486 15.142 184.946 15.142C183.866 15.142 183.147 14.8738 182.606 14.4258C182.067 13.799 181.796 13.1712 181.796 12.3646L181.797 12.3656Z" fill="#4A5766"/>
<path d="M38.7499 25.3228C38.7499 25.3228 37.938 25.4049 36.2239 24.9148C34.1479 24.3437 30.7195 24.1807 27.471 24.3437C24.2214 24.5078 23.7713 24.8338 23.1393 24.9968C22.7786 25.1598 21.3347 25.7309 20.3419 25.7309H19.7109C18.7182 25.7309 17.635 25.1598 17.2743 24.9968C16.7327 24.7518 15.5601 24.5078 12.4914 24.2628C9.33333 24.0998 5.81348 24.1807 3.73859 24.8338C2.02441 25.3228 1.21254 25.2418 1.21254 25.2418C0.850777 26.1389 1.21254 26.956 1.21254 26.956C2.11485 27.363 2.47451 28.5051 2.47451 28.5051C2.92777 34.7067 7.98092 34.7067 10.5974 34.7067C14.3875 34.7067 17.004 33.3195 17.9063 29.8112C18.2681 28.6681 18.3585 28.0971 18.8097 27.8531C19.2608 27.608 20.7037 27.608 21.1549 27.8531C21.6071 28.0971 21.7869 28.5871 22.0582 29.8112C22.9605 33.2375 25.4866 34.7067 29.3671 34.7067C31.9836 34.7067 37.0368 34.7887 37.4879 28.5051C37.4879 28.5051 37.8486 27.363 38.7509 26.955C38.7509 26.955 39.1117 26.2209 38.7499 25.3228ZM3.37788 26.3019C3.37788 26.3839 3.28743 26.3839 3.28743 26.3839H2.02441C1.93397 26.3839 1.93397 26.3019 1.93397 26.3019V25.9759C1.93397 25.8949 2.02441 25.8949 2.02441 25.8949H3.28743C3.37788 25.8949 3.37788 25.9759 3.37788 25.9759V26.3019ZM8.88218 33.8906C5.00161 33.7276 4.00991 30.9533 3.91842 28.9952C3.82903 27.118 4.0993 26.3839 5.99436 25.9769C7.88943 25.4869 16.7327 24.9968 16.8231 27.526C16.9136 30.0552 16.3709 34.2166 8.88218 33.8906ZM35.7727 29.0761C35.6823 30.9533 34.7799 33.8085 30.8089 33.9726C23.4106 34.2986 22.9595 30.1372 22.869 27.689C22.6882 25.1598 31.8017 25.6488 33.6968 26.0579C35.5918 26.3839 35.8631 27.036 35.7727 29.0761ZM37.9391 26.3019C37.9391 26.3839 37.8476 26.3839 37.8476 26.3839H36.5856C36.4941 26.3839 36.4941 26.3019 36.4941 26.3019V25.9759C36.4941 25.8949 36.5846 25.8949 36.5846 25.8949H37.8476C37.938 25.8949 37.938 25.9759 37.938 25.9759L37.9391 26.3019Z" fill="#4A5766"/>
<path d="M11.7805 22.6853C17.3079 22.6853 17.9431 24.1902 20.1169 24.1902C22.1108 24.1902 23.9238 22.6853 27.8202 22.6853C30.81 22.6853 35.0691 23.2164 35.7937 23.127C38.059 22.9514 39.9624 21.0921 39.9624 18.7006C39.9624 17.9929 39.7816 17.3724 39.5102 16.8413C39.4187 16.753 39.3283 16.6647 39.3283 16.5763C38.875 16.2219 38.3313 15.9558 37.6972 16.0442C36.8811 16.0442 36.1565 16.4869 35.7937 17.1957C35.5224 17.4618 35.1596 17.5501 34.8883 17.4618C34.6159 17.2841 34.435 16.9297 34.6159 16.6646C35.1596 15.6025 36.3374 14.8937 37.5153 14.8937C37.8781 14.8937 38.2409 14.8937 38.6027 14.982C38.9624 14.2997 39.1491 13.5396 39.1464 12.7683C39.1464 10.7313 37.9685 8.96136 36.1565 7.98649C35.0691 7.63209 33.8009 7.89815 32.8943 8.78364C31.6261 10.0235 31.6261 12.0595 32.8943 13.3877C33.1657 13.6538 33.1657 14.0082 32.8943 14.1849L32.8039 14.2732L32.622 14.4509C32.5315 14.5393 32.4411 14.5393 32.2602 14.5393C32.0783 14.5393 31.8974 14.4509 31.7165 14.2732C30.81 12.7683 28.8161 12.3256 27.185 13.2111C26.8232 13.3877 26.5508 13.7421 26.2795 14.0082C26.0976 14.2732 25.7358 14.3626 25.4634 14.0965C25.1921 13.9199 25.1006 13.5655 25.373 13.2994C25.7358 12.8577 26.0986 12.5022 26.6413 12.1478C27.9106 11.3517 29.4513 11.3517 30.81 11.8828C30.5387 10.5546 30.9909 9.04865 32.0783 7.98649C32.622 7.45541 33.1657 7.18935 33.8009 6.92433C33.6189 6.0378 32.9848 5.2417 32.2602 4.70957C31.9878 4.62123 31.7165 4.5329 31.4441 4.5329C30.81 4.5329 30.2663 4.70957 29.8141 5.06397C29.2693 5.33004 28.998 5.94946 28.998 6.48054C28.998 6.83494 28.7256 7.01267 28.2724 7.01267C27.9106 7.01267 27.6382 6.7466 27.7287 6.3922C27.7287 5.50672 28.1819 4.62123 28.8161 4.09015L29.6321 3.55907C28.7256 1.43265 26.6413 0.0160882 24.1037 0.0160882C22.9333 -0.0735983 21.7712 0.273317 20.8415 0.98991V5.15126C20.8415 7.63104 22.9248 9.66807 25.4624 9.66807C25.8252 9.66807 26.0965 9.93308 26.0965 10.2885C26.0965 10.6419 25.8252 10.908 25.4624 10.908C24.1037 10.908 22.7439 10.3758 21.7469 9.57973C21.4756 10.6419 20.8415 11.6157 19.9349 12.4129C18.8475 13.2983 17.5793 13.8294 16.128 13.8294H15.6758C15.313 13.8294 15.1321 13.5644 15.1321 13.209C15.1321 12.8556 15.4045 12.6789 15.7662 12.6789C16.9441 12.7673 18.1219 12.4129 19.0284 11.6168C19.9349 10.8186 20.4786 9.75641 20.5691 8.60486C19.9349 7.71937 19.5721 6.56888 19.5721 5.41838V1.16553C18.5752 0.545065 17.4878 0.103375 16.2195 0.103375C13.7734 0.103375 11.5975 1.51994 10.6921 3.64531C10.9634 3.99971 11.3262 4.17639 11.689 4.35412C12.2327 4.53079 12.6849 4.44245 13.2286 4.17639L13.3201 4.08805C14.1351 3.64531 15.0417 3.46758 15.9482 3.73365C16.3099 3.82198 16.4919 4.17639 16.4004 4.44245C16.3099 4.79686 15.9482 4.97353 15.6758 4.88414C15.1321 4.70747 14.498 4.79686 13.9543 5.15021C13.4316 5.41156 13.0623 5.90356 12.9573 6.47844C12.7764 7.18724 12.9573 7.98439 13.501 8.60381C13.7734 8.86987 13.7734 9.22428 13.501 9.40095C13.3763 9.51226 13.2159 9.57529 13.0488 9.57868C12.8669 9.57868 12.7754 9.48929 12.5945 9.40095C11.7795 8.51547 11.4166 7.36497 11.689 6.21342C11.7795 6.03569 11.7795 5.85902 11.8699 5.68234C11.689 5.68234 11.4177 5.59295 11.2358 5.59295C10.5101 5.41628 9.87598 4.8852 9.51422 4.26473C7.88312 4.61913 6.70423 5.68234 6.34246 7.0989C6.9766 7.27558 7.5203 7.62998 8.064 8.16106C9.78554 9.84369 9.78554 12.6779 8.064 14.4488C7.93915 14.5598 7.77877 14.6224 7.61179 14.6255C7.42986 14.6255 7.33837 14.5372 7.15748 14.4488C6.88616 14.1828 6.88616 13.8284 7.15748 13.6517C8.42682 12.4118 8.42682 10.3748 7.15748 9.04655C6.34246 8.25045 5.07313 7.98439 3.98573 8.25045C2.1748 9.04655 0.905465 10.908 0.905465 13.0323C0.905465 13.8294 1.0874 14.5382 1.35977 15.1576C1.54066 15.1576 1.6311 15.1576 1.81198 15.0693C2.7185 15.0693 3.62501 15.3354 4.25915 15.9548C4.8933 16.5753 5.34655 17.3714 5.34655 18.2579C5.34655 18.6112 5.07418 18.8773 4.80285 18.8773C4.44004 18.8773 4.16871 18.6112 4.16871 18.3462C4.16871 17.7258 3.89634 17.1947 3.44308 16.8403C2.99087 16.4859 2.44717 16.2198 1.81303 16.3092C1.49059 16.3018 1.17382 16.3948 0.906516 16.5753C0.362817 17.283 0 18.1685 0 19.054C0 21.3571 1.81198 23.3047 4.16871 23.4814C4.80285 23.4814 8.78963 22.6853 11.7805 22.6853ZM25.2826 19.4084C27.3669 17.1053 31.1718 16.8403 33.5285 18.9667C33.8009 19.1423 33.8009 19.5851 33.6189 19.7628C33.438 20.0278 32.9848 20.0278 32.8039 19.8511C30.9004 18.2568 27.9106 18.3462 26.2795 20.2055C26.1544 20.3167 25.9936 20.3794 25.8263 20.3822C25.6443 20.3822 25.5539 20.2939 25.4634 20.2055C25.1006 20.1172 25.1006 19.7628 25.2826 19.4084ZM18.3953 16.2209C19.4753 16.0496 20.5796 16.3033 21.4767 16.9286C22.8354 17.8141 23.561 19.2317 23.4695 20.825C23.4695 21.1794 23.1982 21.3571 22.8354 21.3571C22.4736 21.3571 22.2012 21.091 22.2917 20.7366C22.3821 19.5851 21.748 18.5229 20.8425 17.9035C20.2073 17.4607 19.3912 17.283 18.5762 17.3714C18.2145 17.4607 17.9421 17.1947 17.8516 16.8403C17.8516 16.5753 18.0325 16.2198 18.3953 16.2198V16.2209ZM7.34047 20.7366C7.24898 21.0027 7.06809 21.2677 6.70528 21.2677H6.61484C6.25307 21.1794 6.07114 20.9143 6.07114 20.5599C6.25307 19.4084 6.88721 18.4346 7.88417 17.7258C8.85404 17.0309 10.058 16.7446 11.2368 16.9286C12.7775 17.1947 14.1362 18.2568 14.6799 19.6734C14.7703 19.9395 14.6799 20.2939 14.3181 20.4705C13.996 20.5734 13.6475 20.4224 13.502 20.1172C13.0498 19.055 12.1423 18.2568 10.9644 18.0802C10.1494 17.9035 9.24289 18.1685 8.51831 18.6112C7.97461 19.054 7.52135 19.9395 7.34047 20.7366Z" fill="#EF6696"/>
</svg>
