<svg width="249" height="41" viewBox="0 0 249 41" fill="none" xmlns="http://www.w3.org/2000/svg">
<path d="M222.09 9.16016C223.399 9.16017 224.56 9.41737 225.574 9.93066C226.588 10.4311 227.441 11.1495 228.134 12.0859C228.827 13.0099 229.347 14.1267 229.693 15.4355C230.04 16.7316 230.213 18.1754 230.213 19.7666V20.1709C230.213 21.6852 230.033 23.0906 229.674 24.3867C229.327 25.6699 228.807 26.7925 228.114 27.7549C227.434 28.7045 226.594 29.4426 225.593 29.9688C224.592 30.4948 223.437 30.7578 222.128 30.7578C220.832 30.7578 219.696 30.5207 218.721 30.0459C217.927 29.6436 217.236 29.1037 216.643 28.4307V38.3809H212.003V9.5459H216.276L216.475 11.7168C217.103 10.9412 217.851 10.3321 218.721 9.8916C219.683 9.40396 220.807 9.16016 222.09 9.16016ZM58.9365 9.16016C60.6818 9.16016 62.1771 9.45559 63.4219 10.0459C64.6795 10.6234 65.6423 11.4131 66.3096 12.4141C66.9766 13.402 67.3105 14.5182 67.3105 15.7627H62.6709C62.6708 15.211 62.5303 14.6974 62.248 14.2227C61.9786 13.7351 61.5674 13.344 61.0156 13.0488C60.4638 12.7408 59.7706 12.5869 58.9365 12.5869C58.141 12.5869 57.4802 12.7151 56.9541 12.9717C56.4408 13.2155 56.0555 13.5368 55.7988 13.9346C55.5552 14.3323 55.4336 14.7685 55.4336 15.2432C55.4336 15.5896 55.4976 15.9042 55.626 16.1865C55.7671 16.456 55.9986 16.7065 56.3193 16.9375C56.6401 17.1555 57.0764 17.3603 57.6279 17.5527C58.1926 17.7452 58.8982 17.9317 59.7451 18.1113C61.3364 18.445 62.7036 18.8752 63.8457 19.4014C65.0004 19.9146 65.8861 20.5821 66.502 21.4033C67.1177 22.2116 67.4257 23.238 67.4258 24.4824C67.4258 25.4063 67.2268 26.2536 66.8291 27.0234C66.4441 27.7806 65.8791 28.4422 65.1348 29.0068C64.3905 29.5585 63.4983 29.988 62.459 30.2959C61.4324 30.6038 60.2773 30.7578 58.9941 30.7578C57.1079 30.7578 55.51 30.4241 54.2012 29.7568C52.8924 29.0767 51.8979 28.2104 51.2178 27.1582C50.5506 26.0932 50.2168 24.9897 50.2168 23.8477H54.7021C54.7535 24.7074 54.9906 25.3939 55.4141 25.9072C55.8504 26.4077 56.3896 26.7739 57.0312 27.0049C57.6855 27.2229 58.3591 27.332 59.0518 27.332C59.8858 27.332 60.5858 27.223 61.1504 27.0049C61.715 26.7739 62.1453 26.4651 62.4404 26.0801C62.7353 25.6825 62.8827 25.2336 62.8828 24.7334C62.8828 24.2714 62.7671 23.8536 62.5361 23.4814C62.3051 23.0966 61.8623 22.7503 61.208 22.4424C60.5664 22.1344 59.6168 21.8523 58.3594 21.5957C57.256 21.3519 56.2422 21.0631 55.3184 20.7295C54.4074 20.3831 53.6241 19.966 52.9697 19.4785C52.3154 18.991 51.8085 18.4132 51.4492 17.7461C51.0899 17.0788 50.9102 16.3082 50.9102 15.4355C50.9102 14.5887 51.0957 13.7864 51.4678 13.0293C51.8399 12.2722 52.3725 11.6048 53.0654 11.0273C53.7583 10.45 54.599 9.99477 55.5869 9.66113C56.5878 9.3275 57.7047 9.16017 58.9365 9.16016ZM78.6543 9.16016C80.3224 9.1602 81.7854 9.49388 83.043 10.1611C84.3005 10.8156 85.2882 11.7335 86.0068 12.9141C86.7383 14.0818 87.1169 15.4424 87.1426 16.9951H82.7734C82.7349 16.2252 82.5418 15.532 82.1953 14.916C81.8617 14.2874 81.3872 13.7871 80.7715 13.415C80.1685 13.043 79.4434 12.8565 78.5967 12.8564C77.6599 12.8564 76.8826 13.0486 76.2666 13.4336C75.6508 13.8057 75.1697 14.3193 74.8232 14.9736C74.4768 15.6152 74.2263 16.3401 74.0723 17.1484C73.9311 17.944 73.8613 18.7721 73.8613 19.6318V20.3057C73.8613 21.1655 73.9311 22.0001 74.0723 22.8086C74.2134 23.6169 74.4573 24.3419 74.8037 24.9834C75.163 25.6121 75.6508 26.119 76.2666 26.5039C76.8825 26.876 77.6657 27.0625 78.6152 27.0625C79.3724 27.0625 80.0531 26.9143 80.6562 26.6191C81.272 26.3112 81.7656 25.8875 82.1377 25.3486C82.5226 24.8097 82.7349 24.1872 82.7734 23.4814H87.1426C87.1169 24.8288 86.7191 26.0546 85.9492 27.1582C85.1793 28.2618 84.1591 29.1414 82.8887 29.7959C81.6183 30.4375 80.2127 30.7578 78.6729 30.7578C77.0818 30.7578 75.6961 30.4881 74.5156 29.9492C73.335 29.3974 72.3531 28.6402 71.5703 27.6777C70.7876 26.7153 70.1976 25.6052 69.7998 24.3477C69.4149 23.0901 69.2217 21.7428 69.2217 20.3057V19.6318C69.2217 18.1947 69.4148 16.8474 69.7998 15.5898C70.1976 14.3194 70.7875 13.2027 71.5703 12.2402C72.3531 11.2778 73.3351 10.5272 74.5156 9.98828C75.6962 9.43653 77.0759 9.16016 78.6543 9.16016ZM110.119 9.16016C111.608 9.16016 112.911 9.41066 114.027 9.91113C115.144 10.4116 116.067 11.1174 116.799 12.0283C117.543 12.9266 118.095 13.9984 118.454 15.2432C118.826 16.4879 119.013 17.861 119.013 19.3623V21.3457H105.35C105.395 22.0038 105.51 22.6258 105.692 23.2119C105.949 23.9819 106.321 24.6559 106.809 25.2334C107.296 25.8109 107.886 26.2669 108.579 26.6006C109.272 26.9214 110.062 27.0811 110.947 27.0811C112.064 27.081 113.058 26.8573 113.931 26.4082C114.803 25.9591 115.561 25.3232 116.202 24.502L118.646 26.8701C118.197 27.5245 117.613 28.1528 116.895 28.7559C116.176 29.3461 115.297 29.8281 114.258 30.2002C113.231 30.5723 112.038 30.7578 110.678 30.7578C109.138 30.7578 107.745 30.5073 106.5 30.0068C105.268 29.4936 104.216 28.7819 103.344 27.8711C102.484 26.96 101.823 25.8881 101.361 24.6562C100.899 23.4244 100.668 22.0962 100.668 20.6719V19.9014C100.668 18.2719 100.905 16.7962 101.38 15.4746C101.855 14.1528 102.516 13.0227 103.363 12.0859C104.21 11.1366 105.211 10.4115 106.365 9.91113C107.52 9.41068 108.772 9.16018 110.119 9.16016ZM129.875 9.16016C131.363 9.16016 132.666 9.41076 133.782 9.91113C134.899 10.4116 135.823 11.1172 136.555 12.0283C137.299 12.9266 137.851 13.9984 138.21 15.2432C138.582 16.4879 138.769 17.861 138.769 19.3623V21.3457H125.104C125.15 22.0037 125.265 22.6258 125.447 23.2119C125.704 23.9819 126.077 24.6559 126.564 25.2334C127.052 25.8108 127.642 26.2669 128.335 26.6006C129.028 26.9214 129.818 27.0811 130.703 27.0811C131.819 27.081 132.814 26.8573 133.687 26.4082C134.559 25.9591 135.316 25.3232 135.958 24.502L138.402 26.8701C137.953 27.5245 137.369 28.1528 136.65 28.7559C135.932 29.3461 135.053 29.8281 134.014 30.2002C132.987 30.5723 131.794 30.7578 130.434 30.7578C128.894 30.7578 127.501 30.5073 126.256 30.0068C125.024 29.4936 123.972 28.7819 123.1 27.8711C122.24 26.96 121.578 25.8882 121.116 24.6562C120.654 23.4244 120.424 22.0962 120.424 20.6719V19.9014C120.424 18.2718 120.661 16.7962 121.136 15.4746C121.611 14.1528 122.271 13.0227 123.118 12.0859C123.965 11.1364 124.966 10.4116 126.121 9.91113C127.276 9.41066 128.528 9.16016 129.875 9.16016ZM169.31 9.16016C171.055 9.16017 172.55 9.4556 173.795 10.0459C175.052 10.6234 176.014 11.4132 176.682 12.4141C177.349 13.4021 177.683 14.5181 177.683 15.7627H173.044C173.044 15.211 172.902 14.6974 172.62 14.2227C172.351 13.7353 171.94 13.3439 171.389 13.0488C170.837 12.7409 170.144 12.5869 169.31 12.5869C168.514 12.5869 167.853 12.7151 167.327 12.9717C166.814 13.2155 166.429 13.5368 166.172 13.9346C165.928 14.3323 165.807 14.7685 165.807 15.2432C165.807 15.5896 165.871 15.9042 165.999 16.1865C166.14 16.4559 166.371 16.7066 166.691 16.9375C167.012 17.1557 167.449 17.3602 168.001 17.5527C168.566 17.7452 169.271 17.9317 170.118 18.1113C171.709 18.445 173.076 18.8753 174.218 19.4014C175.373 19.9147 176.258 20.582 176.874 21.4033C177.49 22.2117 177.798 23.2379 177.798 24.4824C177.798 25.4064 177.599 26.2535 177.201 27.0234C176.816 27.7806 176.252 28.4422 175.508 29.0068C174.764 29.5586 173.871 29.9879 172.832 30.2959C171.805 30.6039 170.65 30.7578 169.367 30.7578C167.481 30.7578 165.883 30.4241 164.574 29.7568C163.265 29.0767 162.271 28.2105 161.591 27.1582C160.924 26.0931 160.59 24.9897 160.59 23.8477H165.074C165.126 24.7074 165.364 25.3939 165.787 25.9072C166.223 26.4077 166.763 26.7739 167.404 27.0049C168.059 27.2229 168.732 27.332 169.425 27.332C170.259 27.332 170.959 27.223 171.523 27.0049C172.088 26.7739 172.517 26.465 172.812 26.0801C173.108 25.6824 173.256 25.2337 173.256 24.7334C173.256 24.2714 173.14 23.8536 172.909 23.4814C172.678 23.0966 172.235 22.7503 171.581 22.4424C170.939 22.1344 169.99 21.8523 168.732 21.5957C167.629 21.3519 166.614 21.0631 165.69 20.7295C164.779 20.383 163.996 19.9661 163.342 19.4785C162.687 18.9909 162.181 18.4133 161.821 17.7461C161.462 17.0788 161.282 16.3082 161.282 15.4355C161.282 14.5887 161.469 13.7864 161.841 13.0293C162.213 12.2723 162.746 11.6048 163.438 11.0273C164.131 10.45 164.972 9.99475 165.96 9.66113C166.961 9.32748 168.078 9.16016 169.31 9.16016ZM186.312 9.5459H190.027V12.9336H186.312V24.6172C186.312 25.2587 186.402 25.7531 186.582 26.0996C186.774 26.4332 187.038 26.6579 187.371 26.7734C187.705 26.8889 188.097 26.9463 188.546 26.9463C188.867 26.9463 189.175 26.9272 189.47 26.8887C189.765 26.8502 190.002 26.8119 190.182 26.7734L190.201 30.3154C189.816 30.4309 189.367 30.5332 188.854 30.623C188.353 30.7129 187.776 30.7578 187.121 30.7578C186.056 30.7578 185.112 30.5723 184.291 30.2002C183.47 29.8152 182.828 29.1927 182.366 28.333C181.904 27.4732 181.674 26.3307 181.674 24.9062V12.9336H178.286V9.5459H181.674V4.44434H186.312V9.5459ZM200.852 9.16016C202.34 9.16016 203.643 9.41066 204.76 9.91113C205.876 10.4116 206.8 11.1174 207.531 12.0283C208.276 12.9266 208.827 13.9984 209.187 15.2432C209.559 16.4879 209.745 17.861 209.745 19.3623V21.3457H196.082C196.128 22.0038 196.242 22.6258 196.425 23.2119C196.681 23.9819 197.053 24.6559 197.541 25.2334C198.029 25.8108 198.619 26.2669 199.312 26.6006C200.004 26.9214 200.794 27.0811 201.68 27.0811C202.796 27.081 203.791 26.8573 204.663 26.4082C205.536 25.9591 206.293 25.3232 206.935 24.502L209.379 26.8701C208.93 27.5243 208.346 28.1529 207.628 28.7559C206.909 29.3462 206.03 29.828 204.99 30.2002C203.964 30.5723 202.77 30.7578 201.41 30.7578C199.87 30.7578 198.478 30.5073 197.233 30.0068C196.002 29.4936 194.949 28.7821 194.076 27.8711C193.216 26.96 192.556 25.8881 192.094 24.6562C191.632 23.4244 191.4 22.0962 191.4 20.6719V19.9014C191.4 18.2719 191.638 16.7962 192.112 15.4746C192.587 14.1528 193.249 13.0227 194.096 12.0859C194.943 11.1365 195.944 10.4115 197.099 9.91113C198.253 9.41079 199.504 9.16019 200.852 9.16016ZM240.518 9.16016C242.263 9.16019 243.757 9.45573 245.002 10.0459C246.26 10.6234 247.222 11.4131 247.89 12.4141C248.557 13.402 248.891 14.5182 248.891 15.7627H244.252C244.252 15.211 244.11 14.6974 243.828 14.2227C243.559 13.7352 243.147 13.3439 242.596 13.0488C242.044 12.741 241.351 12.587 240.518 12.5869C239.722 12.5869 239.06 12.715 238.534 12.9717C238.021 13.2155 237.636 13.5368 237.38 13.9346C237.136 14.3323 237.014 14.7684 237.014 15.2432C237.014 15.5896 237.078 15.9042 237.206 16.1865C237.347 16.456 237.579 16.7065 237.899 16.9375C238.22 17.1556 238.656 17.3603 239.208 17.5527C239.773 17.7452 240.479 17.9317 241.326 18.1113C242.917 18.445 244.284 18.8753 245.426 19.4014C246.581 19.9147 247.466 20.5821 248.082 21.4033C248.698 22.2117 249.006 23.2379 249.006 24.4824C249.006 25.4063 248.807 26.2535 248.409 27.0234C248.024 27.7806 247.46 28.4422 246.716 29.0068C245.972 29.5586 245.079 29.9879 244.04 30.2959C243.013 30.6039 241.858 30.7578 240.575 30.7578C238.689 30.7578 237.091 30.4241 235.782 29.7568C234.473 29.0767 233.479 28.2105 232.799 27.1582C232.132 26.0931 231.798 24.9897 231.798 23.8477H236.282C236.334 24.7074 236.572 25.3939 236.995 25.9072C237.431 26.4076 237.97 26.7739 238.611 27.0049C239.266 27.223 239.94 27.332 240.633 27.332C241.467 27.332 242.166 27.2229 242.73 27.0049C243.295 26.7739 243.725 26.4651 244.021 26.0801C244.315 25.6824 244.463 25.2336 244.463 24.7334C244.463 24.2714 244.348 23.8536 244.117 23.4814C243.886 23.0966 243.443 22.7503 242.789 22.4424C242.147 22.1344 241.197 21.8524 239.939 21.5957C238.836 21.3519 237.822 21.0631 236.898 20.7295C235.987 20.383 235.204 19.9661 234.55 19.4785C233.895 18.9909 233.389 18.4133 233.029 17.7461C232.67 17.0788 232.49 16.3082 232.49 15.4355C232.49 14.5887 232.677 13.7864 233.049 13.0293C233.421 12.2723 233.954 11.6047 234.646 11.0273C235.339 10.45 236.18 9.99474 237.168 9.66113C238.169 9.32748 239.286 9.16016 240.518 9.16016ZM98.6982 9.16016C98.9806 9.16016 99.2827 9.18597 99.6035 9.2373C99.9369 9.28861 100.187 9.34702 100.354 9.41113L100.315 13.7227C100.033 13.6713 99.7252 13.6331 99.3916 13.6074C99.0708 13.5818 98.7495 13.5684 98.4287 13.5684C97.6333 13.5684 96.9341 13.6841 96.3311 13.915C95.7279 14.1332 95.2212 14.4545 94.8105 14.8779C94.4677 15.2318 94.1918 15.6523 93.9824 16.1396V30.373H89.3438V9.5459H93.7705L93.9014 11.9961C93.9286 11.9491 93.9545 11.9016 93.9824 11.8555C94.5086 11.0085 95.1635 10.3479 95.9463 9.87305C96.7418 9.39836 97.659 9.16018 98.6982 9.16016ZM151.594 9.16016C152.595 9.16016 153.5 9.30166 154.309 9.58398C155.13 9.85346 155.829 10.2963 156.406 10.9121C156.997 11.5281 157.446 12.3302 157.754 13.3184C158.062 14.2936 158.216 15.4935 158.216 16.918V30.373H153.558V16.8984C153.558 15.8978 153.41 15.1086 153.115 14.5312C152.833 13.9409 152.415 13.5241 151.863 13.2803C151.324 13.0237 150.651 12.8946 149.843 12.8945C149.047 12.8945 148.335 13.0619 147.706 13.3955C147.077 13.7291 146.545 14.1844 146.108 14.7617C145.923 15.0148 145.756 15.2857 145.607 15.5732V30.373H140.969V9.5459H145.338L145.49 12.0596C145.523 12.0173 145.555 11.9741 145.589 11.9326C146.32 11.0472 147.192 10.3664 148.206 9.8916C149.22 9.40401 150.349 9.16021 151.594 9.16016ZM220.839 12.8945C220.018 12.8945 219.311 13.036 218.721 13.3184C218.131 13.5878 217.637 13.9666 217.239 14.4541C217.01 14.7346 216.812 15.0432 216.643 15.3789V24.541L216.789 24.8223C217.148 25.4622 217.626 25.9845 218.221 26.3887C218.914 26.8378 219.799 27.0625 220.877 27.0625C221.711 27.0625 222.423 26.8827 223.014 26.5234C223.604 26.1641 224.085 25.6698 224.457 25.041C224.842 24.3994 225.125 23.6613 225.305 22.8271C225.484 21.9931 225.574 21.1076 225.574 20.1709V19.7666C225.574 18.8042 225.484 17.9121 225.305 17.0908C225.125 16.2568 224.842 15.5252 224.457 14.8965C224.072 14.2679 223.579 13.78 222.976 13.4336C222.385 13.0743 221.673 12.8946 220.839 12.8945ZM110.1 12.8564C109.33 12.8565 108.643 13.0229 108.04 13.3564C107.45 13.6772 106.956 14.146 106.559 14.7617C106.161 15.3777 105.852 16.1225 105.634 16.9951C105.556 17.3194 105.494 17.6593 105.445 18.0146H114.431V17.6494C114.405 16.8153 114.239 16.0322 113.931 15.3008C113.636 14.5694 113.179 13.9794 112.563 13.5303C111.948 13.0812 111.126 12.8564 110.1 12.8564ZM129.855 12.8564C129.086 12.8565 128.399 13.0228 127.796 13.3564C127.206 13.6773 126.711 14.1458 126.313 14.7617C125.916 15.3777 125.608 16.1225 125.39 16.9951C125.312 17.3194 125.249 17.6593 125.201 18.0146H134.187V17.6494C134.161 16.8153 133.995 16.0322 133.687 15.3008C133.391 14.5694 132.935 13.9794 132.319 13.5303C131.703 13.0812 130.882 12.8564 129.855 12.8564ZM200.833 12.8564C200.063 12.8564 199.376 13.0228 198.772 13.3564C198.182 13.6772 197.689 14.146 197.291 14.7617C196.893 15.3777 196.585 16.1225 196.367 16.9951C196.29 17.3195 196.226 17.6592 196.178 18.0146H205.164V17.6494C205.138 16.8153 204.971 16.0322 204.663 15.3008C204.368 14.5696 203.913 13.9793 203.297 13.5303C202.681 13.0812 201.859 12.8565 200.833 12.8564Z" fill="#1C1D18"/>
<path d="M0 10.0623C0 4.50504 4.50503 0 10.0623 0H30.9377C36.495 0 41 4.50503 41 10.0623V30.9377C41 36.495 36.495 41 30.9377 41H10.0623C4.50504 41 0 36.495 0 30.9377V10.0623Z" fill="#1C1D18"/>
<path d="M13.5821 24.3458L16.5514 27.6862L23.2323 20.6341V26.2016H27.3151V13.5821H14.6956V17.6648H20.6342L13.5821 24.3458Z" fill="#C7F266"/>
</svg>
