<svg xmlns="http://www.w3.org/2000/svg" width="138" height="55" viewBox="0 0 138 55" fill="none"><path d="M23.0869 26.2581C23.0395 32.023 17.7882 37.3405 10.3607 37.3405C9.83075 37.3405 9.31567 37.312 8.8168 37.2565C8.60927 37.2334 8.4806 37.0227 8.54859 36.8252L9.88651 32.9396C9.96236 32.7193 10.1805 32.5826 10.4132 32.5953C10.552 32.6029 10.6922 32.6067 10.8338 32.6067C14.5712 32.6067 17.5044 29.9139 17.5044 26.6799C17.5044 23.5217 15.2269 21.8511 12.7789 20.0553C9.92273 17.9601 6.83435 15.6946 6.85982 10.6975C6.90713 5.49502 11.4961 0.90625 18.3086 0.90625C25.7835 0.90625 29.4764 7.20015 26.635 13.4204C26.3351 14.0771 25.8805 14.8698 24.8872 14.5291L22.742 13.789C21.7235 13.4357 21.5538 12.3808 21.796 11.4772C22.9536 7.15832 20.4197 5.45257 17.7882 5.45257C14.6185 5.45257 12.395 7.27605 12.3477 10.2757C12.3264 13.0973 14.5109 14.708 16.915 16.4806C19.862 18.6535 23.139 21.0698 23.0869 26.2581Z" fill="#F05A3B"></path><path d="M5.26796 35.8826C5.20322 36.0707 4.98864 36.1606 4.8127 36.0679C1.80719 34.4844 0 31.5316 0 27.826C0 25.8357 0.192043 24.2663 1.37479 22.4149C1.72561 21.8657 2.24776 21.7913 3.01795 22.0532L7.85977 23.7243C8.6467 24.0068 9.00568 24.9323 8.75688 25.7501L6.96942 30.9373C6.96546 30.9488 6.96194 30.9603 6.95884 30.972L5.26796 35.8826Z" fill="#F05A3B"></path><path fill-rule="evenodd" clip-rule="evenodd" d="M50.6494 37.3429C53.1929 37.3429 55.694 35.3444 57.7589 32.8376C57.7927 35.6179 59.0151 37.343 62.2601 37.343C64.9589 37.343 67.6099 35.0931 69.7403 32.3734C69.8735 35.4341 71.2841 37.343 74.8082 37.343C77.5292 37.343 80.2187 35.0024 82.3748 32.21C83.5052 35.5753 86.7342 37.3429 90.6611 37.3429C94.9176 37.3429 97.8286 35.9834 100.028 33.9248C100.243 33.7492 100.469 33.5262 100.702 33.2502L100.72 33.23C100.965 32.9676 101.2 32.6962 101.428 32.4171C104.15 29.2091 106.397 25.6238 108.099 21.771C109.186 22.0473 110.298 22.2135 111.418 22.2671L111.284 22.5516C109.406 26.5341 107.947 29.6281 107.947 32.6301C107.906 33.2515 107.996 33.8746 108.212 34.4587C108.428 35.0428 108.765 35.5747 109.2 36.0196C109.636 36.4644 110.161 36.8123 110.74 37.0404C111.319 37.2684 111.94 37.3716 112.562 37.3431C115.15 37.3431 117.739 35.1627 119.849 32.5123C120.662 35.4001 122.99 37.3427 126.363 37.3427C133.071 37.3427 137.382 30.6039 137.382 24.003C137.382 20.3374 135.109 16.7131 130.743 16.7131C125.179 16.7131 121.025 21.3394 119.861 26.9219C117.911 30.1546 115.668 32.5612 114.242 32.5612C113.553 32.5612 113.154 32.0651 113.154 31.2658C113.154 29.2401 115.509 23.7967 117.355 19.6625C117.426 19.5074 117.458 19.3367 117.446 19.1662C117.435 18.9957 117.38 18.8308 117.289 18.6868C117.197 18.5427 117.07 18.4241 116.92 18.3417C116.771 18.2594 116.603 18.216 116.432 18.2156C114.27 18.174 112.113 17.9991 109.972 17.6919C109.923 17.6828 109.877 17.6632 109.836 17.6344C109.795 17.6056 109.761 17.5683 109.736 17.525C109.711 17.4818 109.696 17.4336 109.692 17.3839C109.687 17.3342 109.694 17.2841 109.71 17.2371C109.794 16.9799 109.865 16.7824 109.927 16.6085C110.008 16.3819 110.075 16.1955 110.137 15.9693C110.137 15.9693 110.138 15.9664 110.138 15.963C110.147 15.9026 110.214 15.4457 109.614 15.4457H107.038C105.798 15.4996 105.481 16.5308 105.158 17.5825L105.138 17.6506C104.382 20.1295 103.743 22.1588 102.977 23.9947C99.535 30.7276 96.4768 33.126 91.763 33.126C88.8843 33.126 87.4518 31.9409 87.0937 29.9565C92.1073 31.1003 98.7463 28.4682 98.7463 22.5563C98.7663 21.7706 98.6238 20.9892 98.3278 20.2612C98.0318 19.5332 97.5886 18.8742 97.026 18.3256C96.4634 17.777 95.7937 17.3506 95.0587 17.0731C94.3237 16.7957 93.5393 16.6732 92.7547 16.7133C87.1968 16.7133 83.185 21.3234 82.185 26.7542C80.0917 30.2597 77.847 32.5749 76.3371 32.5749C73.8578 32.5749 73.8991 29.8463 77.0258 21.1094H79.4086C79.9764 21.1081 80.53 20.9314 80.9935 20.6033C81.457 20.2752 81.8079 19.8118 81.9981 19.2766L82.0945 19.0285C82.1673 18.8202 82.189 18.5973 82.1578 18.3788C82.1266 18.1603 82.0434 17.9524 81.9151 17.7728C81.7868 17.5931 81.6174 17.4469 81.4209 17.3465C81.2244 17.2461 81.0067 17.1944 80.786 17.1957H78.5822C79.2158 15.5145 79.932 13.6954 80.7309 11.6835C80.7854 11.5294 80.8026 11.3647 80.7811 11.2027C80.7596 11.0408 80.7001 10.8862 80.6073 10.7517C80.5146 10.6173 80.3913 10.5067 80.2476 10.4291C80.1038 10.3515 79.9438 10.3091 79.7805 10.3054H78.0037C77.4432 10.3064 76.8963 10.4784 76.4361 10.7985C75.9759 11.1186 75.6242 11.5716 75.428 12.0969L73.5135 17.2095H73.3068C72.731 17.207 72.1689 17.3852 71.6995 17.7189C71.2301 18.0526 70.8769 18.525 70.6898 19.0699L70.2133 20.4629C70.1025 20.7866 70.3431 21.1232 70.6852 21.1232H72.1223C71.7625 22.1884 71.4287 23.2303 71.1316 24.2393C68.6577 29.1171 65.7069 32.5887 63.8579 32.5887C61.5229 32.5887 63.4894 27.3663 66.0794 20.4882C66.2546 20.0227 66.4328 19.5495 66.6127 19.0699C66.6903 18.8622 66.7166 18.6388 66.6894 18.4188C66.6623 18.1987 66.5824 17.9884 66.4567 17.8058C66.3309 17.6232 66.163 17.4736 65.9672 17.3698C65.7713 17.266 65.5533 17.211 65.3317 17.2095H64.0645C63.504 17.2105 62.9571 17.3825 62.4969 17.7026C62.0366 18.0227 61.685 18.4757 61.4888 19.001C60.9063 20.5618 60.3442 22.0933 59.8409 23.5648C57.6375 28.9859 54.1884 32.5059 52.2609 32.5059C50.7733 32.5059 50.9661 31.0176 52.8118 25.6156C54.1203 21.633 56.5308 14.7565 59.4508 7.08067C59.5053 6.92664 59.5225 6.76191 59.501 6.59994C59.4795 6.43797 59.42 6.28342 59.3272 6.14894C59.2345 6.01446 59.1112 5.90387 58.9675 5.82629C58.8237 5.74871 58.6637 5.70632 58.5004 5.70261H56.6685C56.104 5.70182 55.5529 5.87455 55.0898 6.19743C54.6266 6.52031 54.2738 6.97777 54.079 7.50787C53.729 8.46822 53.3759 9.43495 53.0235 10.3995C51.2328 15.3008 49.4626 20.1463 48.2347 23.8149C45.7203 29.6521 42.144 32.8569 38.8728 33.195C41.7515 31.2658 43.9829 26.1532 43.9829 22.7356C43.9829 18.8632 42.2749 16.6721 39.5202 16.6721C36.7654 16.6721 34.231 18.6565 32.6333 21.3437L33.7627 18.5876C33.8176 18.4325 33.8346 18.2665 33.8124 18.1035C33.7902 17.9405 33.7294 17.7851 33.6351 17.6503C33.5408 17.5156 33.4157 17.4052 33.2702 17.3285C33.1247 17.2519 32.963 17.2111 32.7986 17.2095H31.2422C30.668 17.2061 30.1071 17.3822 29.6379 17.7133C29.1687 18.0443 28.8146 18.5138 28.6251 19.0561C25.6545 27.7362 21.2747 40.357 17.9885 49.8265L17.9848 49.8373C17.6307 50.8576 17.2893 51.8414 16.9638 52.7796C16.9192 52.9325 16.9105 53.0937 16.9384 53.2505C16.9664 53.4074 17.0302 53.5556 17.1249 53.6837C17.2196 53.8117 17.3426 53.9162 17.4843 53.9889C17.626 54.0615 17.7825 54.1004 17.9417 54.1025H19.8012C20.3937 54.1043 20.971 53.9149 21.4474 53.5624C21.9238 53.2099 22.2739 52.7131 22.4457 52.1457C23.8369 47.5292 26.7932 38.79 27.9227 35.5653C29.984 36.8464 32.3856 37.471 34.8096 37.3568C38.8775 37.3568 42.8032 36.821 46.2916 33.0376C46.3799 35.9699 47.787 37.3429 50.6494 37.3429ZM36.8067 21.0681C38.0464 21.0681 38.6387 22.1154 38.6387 23.7553C38.6387 27.6277 35.5671 33.2777 32.2889 33.3329C31.6893 33.3571 31.0911 33.2597 30.5301 33.0465C29.9691 32.8334 29.4569 32.5089 29.0245 32.0926C31.9446 24.0447 34.8233 21.0681 36.8067 21.0681ZM87.2039 26.8283C90.3719 27.1728 94.0908 25.4502 94.0908 22.763C94.1294 22.5208 94.1141 22.2731 94.046 22.0375C93.978 21.8019 93.8588 21.5842 93.697 21.3999C93.5352 21.2157 93.3347 21.0694 93.11 20.9715C92.8852 20.8737 92.6416 20.8266 92.3966 20.8337C89.9311 20.8337 87.8375 23.5072 87.2039 26.8283ZM132.231 24.4026C132.231 22.4596 131.432 21.0677 129.903 21.0677C127.217 21.0677 124.641 25.7807 124.641 29.405C124.641 31.6375 125.578 32.7812 127.024 32.7812C129.6 32.7812 132.231 28.1647 132.231 24.4026Z" fill="#F05A3B"></path><path d="M63.2519 12.0005C63.2488 10.8714 63.6733 9.78317 64.44 8.95472C65.2067 8.12628 66.2586 7.6192 67.384 7.53557C67.7254 7.52405 68.0655 7.58283 68.3832 7.70825C68.7009 7.83368 68.9894 8.02305 69.2309 8.26468C69.4724 8.50631 69.6617 8.79503 69.7871 9.11289C69.9125 9.43076 69.9712 9.77102 69.9597 10.1125C69.9357 11.2279 69.5124 12.2977 68.7667 13.1272C68.021 13.9567 67.0025 14.4909 65.8964 14.6326C65.5435 14.6592 65.189 14.6094 64.8571 14.4867C64.5251 14.3641 64.2234 14.1713 63.9725 13.9216C63.7216 13.6719 63.5274 13.3711 63.4031 13.0396C63.2787 12.7081 63.2271 12.3537 63.2519 12.0005Z" fill="#F05A3B"></path></svg>