<svg xmlns="http://www.w3.org/2000/svg" width="160" height="42" viewBox="0 0 160 42" fill="none"><g clip-path="url(#clip0_9_687)"><path d="M0.216323 11.3556C0.0786628 11.5501 0.0196657 11.764 0 11.9584V12.3279V12.3473V29.614C0 35.1362 3.91347 39.8418 9.38053 41.6501C9.61652 41.6695 9.9705 41.6695 10.2262 41.4751C10.6195 41.164 10.6195 40.4834 10.6195 40.4834C10.6195 40.4834 10.6195 40.5029 10.6391 40.5223V8.43896L0.491642 11.1223C0.393314 11.1806 0.294985 11.2584 0.216323 11.3556Z" fill="white"></path><path d="M16.1458 7.19424C15.9885 7.38868 15.9491 7.62202 15.9295 7.81646V8.16646C15.9295 8.1859 15.9295 8.20535 15.9295 8.20535V40.522V40.5026C15.9295 40.5026 15.9098 41.1831 16.3228 41.4942C16.5784 41.6887 16.9521 41.6887 17.1684 41.6692C22.6355 39.8609 26.5293 35.1553 26.5293 29.6331V4.21924L16.6374 6.84424C16.4604 6.92202 16.2835 7.01924 16.1458 7.19424Z" fill="white"></path><path d="M32.9793 2.50833C32.999 2.50833 32.999 2.50833 32.9793 2.50833C32.999 2.50833 32.9596 2.50833 32.94 2.52778L32.645 2.60556C32.468 2.66389 32.232 2.78056 32.0943 2.975C31.9567 3.16944 31.8977 3.38333 31.878 3.57778V3.94722V3.96667V29.1667C31.878 33.4444 30.3441 37.5083 27.4926 40.8528C27.3156 41.125 27.1386 41.475 27.2566 41.7083C27.3353 41.8444 27.4926 41.9222 27.6696 41.9611C27.8466 41.9611 28.0235 41.9806 28.2202 41.9806C36.0865 41.9806 42.4778 36.225 42.4778 29.1472V0L32.9793 2.50833Z" fill="white"></path><path d="M57.601 8.75H60.9834V20.1056C60.9834 23.1194 62.6747 25.0639 65.8999 25.0639C69.0857 25.0639 70.7769 23.1 70.7769 20.1056V8.75H74.1594V20.1833C74.1594 24.8889 71.4259 28.0194 65.8999 28.0194C60.3345 28.0194 57.601 24.8694 57.601 20.2222V8.75Z" fill="white"></path><path d="M78.1516 32.8998V13.9804H81.1605V15.847C82.2027 14.4859 83.7956 13.6304 85.6049 13.6304C89.184 13.6304 91.7406 16.2943 91.7406 20.8054C91.7406 25.3165 89.184 28.0193 85.6049 28.0193C83.8546 28.0193 82.2814 27.2609 81.1605 25.7831V32.8998H78.1516ZM84.7199 16.2748C83.304 16.2748 81.8291 17.0915 81.1605 18.122V23.547C81.8291 24.5387 83.304 25.3943 84.7199 25.3943C87.0995 25.3943 88.6334 23.4887 88.6334 20.8248C88.6334 18.1804 87.1191 16.2748 84.7199 16.2748Z" fill="white"></path><path d="M103.678 17.636L100.453 27.6888H97.2864L92.9796 13.9805H96.1065L99.0366 23.936L102.34 13.9805H104.976L108.279 23.936L111.21 13.9805H114.337L110.03 27.6888H106.864L103.678 17.636Z" fill="white"></path><path d="M124.917 26.2109C123.874 27.3776 122.281 28.0192 120.433 28.0192C118.171 28.0192 115.615 26.522 115.615 23.4692C115.615 20.3193 118.171 19.0165 120.433 19.0165C122.301 19.0165 123.914 19.6193 124.917 20.7859V18.7443C124.917 17.1498 123.599 16.197 121.672 16.197C120.118 16.197 118.781 16.7609 117.562 17.9276L116.323 15.847C117.935 14.3498 119.941 13.6304 122.144 13.6304C125.212 13.6304 127.906 14.9137 127.906 18.5887V27.6692H124.897V26.2109H124.917ZM124.917 22.497C124.228 21.5637 122.93 21.0776 121.613 21.0776C119.922 21.0776 118.663 22.0498 118.663 23.547C118.663 25.0248 119.922 25.997 121.613 25.997C122.93 25.997 124.228 25.5109 124.917 24.5776V22.497Z" fill="white"></path><path d="M129.833 13.9805H133.058L137.11 24.2666L141.161 13.9805H144.406L138.742 27.6888H135.497L129.833 13.9805Z" fill="white"></path><path d="M152.468 13.6304C156.637 13.6304 159.292 16.7804 159.292 21.097V21.797H148.574C148.81 23.8776 150.384 25.5692 152.999 25.5692C154.356 25.5692 155.949 25.0248 156.932 24.072L158.309 26.0359C156.932 27.3387 154.887 28.0192 152.684 28.0192C148.515 28.0192 145.428 25.1609 145.428 20.8054C145.428 16.8387 148.358 13.6304 152.468 13.6304ZM148.555 19.7165H156.362C156.303 18.1026 155.182 16.0804 152.448 16.0804C149.872 16.0804 148.692 18.0248 148.555 19.7165Z" fill="white"></path></g><defs><clipPath id="clip0_9_687"><rect width="160" height="42" fill="white"></rect></clipPath></defs></svg>