<svg width="165" height="44" viewBox="0 0 165 44" fill="none" xmlns="http://www.w3.org/2000/svg">
<g clip-path="url(#clip0_27_913)">
<g clip-path="url(#clip1_27_913)">
<g clip-path="url(#clip2_27_913)">
<path d="M21.9203 0.000976562C34.0265 0.000976562 43.8406 9.81502 43.8406 21.9213C43.8406 34.0275 34.0265 43.8416 21.9203 43.8416C9.81405 43.8416 0 34.0275 0 21.9213C0 9.81502 9.81405 0.000976562 21.9203 0.000976562ZM21.9203 2.61276C11.267 2.62561 2.63396 11.2586 2.62111 21.9119C2.62111 32.5706 11.2616 41.2111 21.9203 41.2111C32.5789 41.2111 41.2195 32.5706 41.2195 21.9119C41.2195 11.2533 32.5789 2.61276 21.9203 2.61276ZM13.6553 17.014L13.6691 11.5001H30.1853C30.1485 14.0237 30.2313 14.3518 29.2284 16.3762L24.5864 25.8741H21.5315C21.5315 25.8741 26.1414 16.7644 26.9327 14.3842H16.4524V17.014H13.6553ZM30.1853 26.8267L30.1761 32.3424H13.6553C13.6921 29.818 13.6093 29.4898 14.6122 27.4648L19.2542 17.9684H22.3136C22.3136 17.9684 17.6992 27.0764 16.9079 29.4574H27.3927V26.8267H30.1853ZM53.1837 28.6409L64.1897 14.8212H53.4389V12.2188H67.5075V14.4783L56.784 28.2932H67.5576V30.905H53.1837V28.6409ZM73.3072 12.2188H76.182V30.905H73.3072V12.2188ZM85.6053 21.7921H90.4802C92.1412 21.7921 93.3035 20.2936 93.3035 18.2925C93.3035 16.2163 91.8918 14.8212 90.3249 14.8212H85.6194L85.6053 21.7921ZM82.6503 30.9003V12.2188H90.5084C93.8822 12.2188 96.3055 15.3003 96.3055 18.2972C96.3055 21.4304 94.0375 24.4038 90.659 24.4038H85.6053V30.905L82.6503 30.9003ZM101.336 30.905V12.2188H104.278V28.302H114.273V30.905H101.336ZM119.304 12.2188H122.179V30.905H119.304V12.2188ZM132.281 17.7443V30.905H129.366V12.2188H131.658L142.233 25.6943V12.2423H145.177V30.905H142.754L132.281 17.7443ZM151.645 12.2188H164.345V14.8218H154.619V20.1406H163.041V22.5885H154.619V28.2973H164.582V30.905H151.645V12.2188Z" fill="#011E41"/>
</g>
</g>
</g>
<defs>
<clipPath id="clip0_27_913">
<rect width="165" height="43.8429" fill="white"/>
</clipPath>
<clipPath id="clip1_27_913">
<rect width="165" height="43.8429" fill="white"/>
</clipPath>
<clipPath id="clip2_27_913">
<rect width="165" height="43.8406" fill="white" transform="translate(0 0.000976562)"/>
</clipPath>
</defs>
</svg>
