<?xml version="1.0" encoding="UTF-8"?>
<svg width="22px" height="22px" viewBox="0 0 22 22" version="1.1" xmlns="http://www.w3.org/2000/svg" xmlns:xlink="http://www.w3.org/1999/xlink">
    <!-- Generator: Sketch 56.2 (81672) - https://sketch.com -->
    <title>Icon/Dribbble</title>
    <desc>Created with Sketch.</desc>
    <g id="Home" stroke="none" stroke-width="1" fill="none" fill-rule="evenodd">
        <g id="D.-IA---Project-details" transform="translate(-659.000000, -4129.000000)" fill="#FFFFFF">
            <g id="Footer" transform="translate(0.000000, 4096.000000)">
                <path d="M670,33 C663.92734,33 659,37.92734 659,44 C659,50.07266 663.92734,55 670,55 C676.060736,55 681,50.07266 681,44 C681,37.92734 676.060736,33 670,33 Z M677.26572,38.070494 C678.578086,39.66919 679.36551,41.709338 679.38938,43.916488 C679.07918,43.856824 675.977224,43.224522 672.85142,43.618212 C672.779832,43.463134 672.720168,43.296088 672.648602,43.129064 C672.457708,42.67571 672.242944,42.21041 672.028202,41.76898 C675.488076,40.361178 677.062902,38.332976 677.26572,38.070494 Z M670,34.6225594 C672.38612,34.6225594 674.569422,35.51735 676.22776,36.984816 C676.060736,37.223428 674.640988,39.1204 671.300442,40.373102 C669.761388,37.545552 668.05531,35.23102 667.79285,34.873102 C668.49674,34.7060736 669.236446,34.6225594 670,34.6225594 Z M666.00326,35.505426 C666.253796,35.839474 667.92408,38.165952 669.486982,40.933838 C665.09653,42.103028 661.219096,42.0792166 660.801518,42.0792166 C661.409968,39.168118 663.378528,36.746204 666.00326,35.505426 Z M660.598698,44.011924 C660.598698,43.916488 660.598698,43.821052 660.598698,43.725594 C661.004339,43.737518 665.56183,43.797182 670.250536,42.38938 C670.524942,42.914322 670.775478,43.451188 671.01409,43.988076 C670.894784,44.02387 670.763554,44.059664 670.644248,44.095436 C665.800442,45.65836 663.223428,49.929506 663.008686,50.287424 C661.51735,48.629064 660.598698,46.421914 660.598698,44.011924 Z M670,53.401304 C667.828644,53.401304 665.82429,52.661598 664.237518,51.42082 C664.404564,51.074848 666.31346,47.40021 671.61062,45.550978 C671.63449,45.539054 671.646414,45.539054 671.670284,45.527108 C672.994574,48.951188 673.531462,51.826456 673.674616,52.649674 C672.54122,53.138822 671.300442,53.401304 670,53.401304 Z M675.23754,51.790684 C675.142082,51.218002 674.64101,48.473964 673.412156,45.097624 C676.359012,44.632324 678.936004,45.395878 679.258128,45.50326 C678.852492,48.116046 677.349232,50.370936 675.23754,51.790684 Z" id="Icon/Dribbble"></path>
            </g>
        </g>
    </g>
</svg>