<?xml version="1.0" encoding="UTF-8"?>
<svg width="24px" height="23px" viewBox="0 0 24 23" version="1.1" xmlns="http://www.w3.org/2000/svg" xmlns:xlink="http://www.w3.org/1999/xlink">
    <!-- Generator: Sketch 56.2 (81672) - https://sketch.com -->
    <title>Icon/LinkedIn</title>
    <desc>Created with Sketch.</desc>
    <g id="Home" stroke="none" stroke-width="1" fill="none" fill-rule="evenodd">
        <g id="D.-IA---Project-details" transform="translate(-531.000000, -4129.000000)" fill="#FFFFFF" fill-rule="nonzero">
            <g id="Footer" transform="translate(0.000000, 4096.000000)">
                <path d="M555,47.0604533 L555,55.9334065 L549.856023,55.9334065 L549.856023,47.6547102 C549.856023,45.5750342 549.112002,44.1557367 547.250053,44.1557367 C545.828691,44.1557367 544.982837,45.1122392 544.610715,46.0374944 C544.475013,46.3682696 544.440083,46.8286652 544.440083,47.2916834 L544.440083,55.9334065 L539.294376,55.9334065 C539.294376,55.9334065 539.363678,41.9120123 539.294376,40.4592913 L544.43958,40.4592913 L544.43958,42.6526852 C544.429146,42.66909 544.415587,42.6867782 544.405766,42.7026809 L544.43958,42.7026809 L544.43958,42.6526852 C545.123171,41.5998182 546.343992,40.0957623 549.07657,40.0957623 C552.462049,40.0957623 555,42.3074024 555,47.0604533 Z M533.911747,33 C532.151408,33 531,34.154644 531,35.6730401 C531,37.1583476 532.118096,38.3480332 533.84345,38.3480332 L533.877822,38.3480332 C535.672254,38.3480332 536.78823,37.1585708 536.78823,35.6730401 C536.754416,34.154644 535.672254,33 533.911747,33 Z M531.30561,55.9334065 L536.449364,55.9334065 L536.449364,40.4592913 L531.30561,40.4592913 L531.30561,55.9334065 Z" id="Icon/LinkedIn"></path>
            </g>
        </g>
    </g>
</svg>