<svg xmlns="http://www.w3.org/2000/svg" width="79" height="56" viewBox="0 0 79 56">
    <g fill="none" fill-rule="nonzero">
        <path fill="#5882D3" d="M24.179 0h11.53a1.334 1.334 0 0 1 1.227 1.86L14.022 55.192c-.21.49-.693.807-1.226.807H1.334a1.334 1.334 0 0 1-1.226-1.858L22.952.809c.21-.49.693-.809 1.227-.809z"/>
        <path fill="#4C5787" d="M54.055 0h.088c.534 0 1.016.318 1.226.809l22.845 53.333A1.333 1.333 0 0 1 76.987 56H65.526a1.334 1.334 0 0 1-1.226-.807l-2.112-4.916H43.265c-.172 0-.343-.033-.502-.099a1.34 1.34 0 0 1-.774-1.614l.045-.129 4.231-10.43a1.33 1.33 0 0 1 1.097-.825l.133-.007h9.063L48.334 18.03 32.367 55.193c-.21.49-.692.807-1.226.807H19.68a1.334 1.334 0 0 1-1.227-1.858L41.298.809c.21-.49.692-.809 1.226-.809h11.531z"/>
    </g>
</svg>
